<?xml version="1.0" encoding="utf-8"?>
<!-- Generator: Adobe Illustrator 17.1.0, SVG Export Plug-In . SVG Version: 6.00 Build 0)  -->
<!DOCTYPE svg PUBLIC "-//W3C//DTD SVG 1.1//EN" "http://www.w3.org/Graphics/SVG/1.1/DTD/svg11.dtd">
<svg version="1.1" xmlns="http://www.w3.org/2000/svg" xmlns:xlink="http://www.w3.org/1999/xlink" x="0px" y="0px"
	 viewBox="0 0 960 650" enable-background="new 0 0 960 650" xml:space="preserve">
<g id="Background">
	<rect opacity="0.66" fill="#B31212" width="960" height="650"/>
</g>
<g id="Layer_2">
	<g>
		<g>
			<path fill="#FFFFFF" d="M550.1,420.5l-6.1-1.9c0.9-1.7,1.7-3.4,2.4-5.2l6.6,0.8c3.4,0.4,6.6-1.1,7.1-3.4l0.5-2
				c0.6-2.2-1.7-4.4-5-4.8l-6.6-0.8c0.2-1.8,0.3-3.6,0.3-5.4l6.7-0.4c3.4-0.2,5.9-2.2,5.6-4.5l-0.3-2.1c-0.3-2.3-3.3-3.9-6.7-3.7
				l-6.7,0.4c-0.5-1.8-1.1-3.5-1.8-5.3l6.3-1.6c3.2-0.8,4.9-3.2,3.7-5.3l-1.1-1.9c-1.2-2.1-4.7-3.2-7.9-2.4l-6.3,1.6
				c-1.1-1.6-2.4-3.2-3.8-4.8l5.5-2.6c2.8-1.3,3.5-3.9,1.5-5.7l-1.8-1.7c-2-1.9-5.8-2.3-8.6-1l-5.5,2.6c-1.7-1.4-3.6-2.7-5.5-4
				l4.3-3.4c2.2-1.7,1.8-4.3-0.8-5.8l-2.4-1.3c-2.6-1.5-6.5-1.2-8.7,0.5l-4.3,3.4c-2.2-1-4.5-2-6.9-2.9l2.8-4.1
				c1.4-2.1,0.1-4.5-3-5.5l-2.8-0.9c-3.1-1-6.8-0.1-8.2,2l-2.8,4.1c-2.6-0.6-5.2-1.2-7.8-1.6l1.2-4.4c0.6-2.2-1.7-4.4-5-4.8l-3-0.4
				c-3.4-0.4-6.6,1.1-7.1,3.4l-1.1,4.4c-2.7-0.2-5.4-0.2-8.1-0.2l-0.6-4.5c-0.3-2.3-3.3-3.9-6.7-3.7l-3.1,0.2
				c-3.4,0.2-5.9,2.2-5.6,4.5l0.6,4.5c-2.7,0.3-5.3,0.7-7.9,1.2l-2.3-4.2c-1.2-2.1-4.7-3.2-7.9-2.4l-2.9,0.7
				c-3.2,0.8-4.9,3.2-3.7,5.3l2.3,4.2c-2.5,0.8-4.9,1.6-7.2,2.5l-3.9-3.7c-2-1.9-5.8-2.3-8.6-1l-2.5,1.2c-2.8,1.3-3.5,3.9-1.5,5.7
				l3.9,3.7c-2.1,1.2-4.1,2.4-6,3.7l-5.2-2.9c-2.6-1.5-6.5-1.2-8.7,0.5l-2,1.6c-2.2,1.7-1.8,4.3,0.8,5.8l5.2,2.9
				c-1.5,1.5-3,3-4.3,4.6l-6.1-1.9c-3.1-1-6.8-0.1-8.2,2l-1.3,1.9c-1.4,2.1-0.1,4.5,3,5.5l6.1,1.9c-0.9,1.7-1.7,3.4-2.4,5.2
				l-6.6-0.8c-3.4-0.4-6.6,1.1-7.1,3.4l-0.5,2c-0.6,2.2,1.7,4.4,5,4.8l6.6,0.8c-0.2,1.8-0.3,3.6-0.3,5.4l-6.7,0.4
				c-3.4,0.2-5.9,2.2-5.6,4.5l0.3,2.1c0.3,2.3,3.3,3.9,6.7,3.7l6.7-0.4c0.5,1.8,1.1,3.5,1.8,5.3l-6.3,1.6c-3.2,0.8-4.8,3.2-3.7,5.3
				l1.1,1.9c1.2,2.1,4.7,3.2,7.9,2.4l6.3-1.5c1.1,1.6,2.4,3.2,3.8,4.8l-5.5,2.6c-2.8,1.3-3.5,3.9-1.5,5.7l1.8,1.7
				c2,1.9,5.8,2.3,8.6,1l5.5-2.6c1.7,1.4,3.6,2.7,5.5,4l-4.3,3.4c-2.2,1.7-1.8,4.3,0.8,5.8l2.4,1.3c2.6,1.5,6.5,1.2,8.7-0.5l4.3-3.4
				c2.2,1,4.5,2,6.9,2.9l-2.8,4.1c-1.4,2.1-0.1,4.5,3,5.5l2.8,0.9c3.1,1,6.8,0.1,8.2-2l2.8-4.1c2.6,0.6,5.2,1.2,7.8,1.6l-1.2,4.4
				c-0.6,2.2,1.7,4.4,5,4.8l3,0.4c3.4,0.4,6.6-1.1,7.1-3.4l1.1-4.4c2.7,0.2,5.4,0.2,8.1,0.2l0.6,4.5c0.3,2.3,3.3,3.9,6.7,3.7
				l3.1-0.2c3.4-0.2,5.9-2.2,5.6-4.5l-0.6-4.5c2.7-0.3,5.3-0.7,7.9-1.2l2.3,4.2c1.2,2.1,4.7,3.2,7.9,2.4l2.9-0.7
				c3.2-0.8,4.8-3.2,3.7-5.3l-2.3-4.2c2.5-0.8,4.9-1.6,7.2-2.5l3.9,3.7c2,1.9,5.8,2.3,8.6,1l2.5-1.2c2.8-1.3,3.5-3.9,1.5-5.7
				l-3.9-3.7c2.1-1.2,4.1-2.4,6-3.7l5.2,2.9c2.6,1.5,6.5,1.2,8.7-0.5l2-1.6c2.2-1.7,1.8-4.3-0.8-5.8l-5.2-2.9c1.5-1.5,3-3,4.3-4.6
				l6.1,1.9c3.1,1,6.8,0.1,8.2-2l1.3-1.9C554.6,423.9,553.2,421.5,550.1,420.5z"/>
			<ellipse fill="#CCFFFF" cx="459.3" cy="398" rx="80.1" ry="53.4"/>
			<g>
				<ellipse fill="#FF0000" cx="459.3" cy="398.2" rx="75.7" ry="50.5"/>
				<ellipse fill="#FF0000" cx="459.3" cy="398.2" rx="75.7" ry="50.5"/>
			</g>
		</g>
		<rect x="432.6" y="373.7" fill="none" width="83.6" height="60"/>
		<text transform="matrix(1.5 0 0 1 403.7956 392.7955)"><tspan x="0" y="0" fill="#FFFFFF" font-family="'Arial-Black'" font-size="12">Performance</tspan><tspan x="0" y="14.4" fill="#FFFFFF" font-family="'Arial-Black'" font-size="12">    Testing</tspan></text>
	</g>
</g>
<g id="Layer_3">
	<g>
		<g>
			<path fill="#FFFFFF" d="M543.3,201.9l-6.1-1.9c0.9-1.7,1.7-3.4,2.4-5.2l6.6,0.8c3.4,0.4,6.6-1.1,7.1-3.4l0.5-2
				c0.6-2.2-1.7-4.4-5-4.8l-6.6-0.8c0.2-1.8,0.3-3.6,0.3-5.4l6.7-0.4c3.4-0.2,5.9-2.2,5.6-4.5l-0.3-2.1c-0.3-2.3-3.3-3.9-6.7-3.7
				l-6.7,0.4c-0.5-1.8-1.1-3.5-1.8-5.3l6.3-1.6c3.2-0.8,4.9-3.2,3.7-5.3l-1.1-1.9c-1.2-2.1-4.7-3.2-7.9-2.4l-6.3,1.6
				c-1.1-1.6-2.4-3.2-3.8-4.8l5.5-2.6c2.8-1.3,3.5-3.9,1.5-5.7l-1.8-1.7c-2-1.9-5.8-2.3-8.6-1l-5.5,2.6c-1.7-1.4-3.6-2.7-5.5-4
				l4.3-3.4c2.2-1.7,1.8-4.3-0.8-5.8l-2.4-1.3c-2.6-1.5-6.5-1.2-8.7,0.5l-4.3,3.4c-2.2-1-4.5-2-6.9-2.9l2.8-4.1
				c1.4-2.1,0.1-4.5-3-5.5l-2.8-0.9c-3.1-1-6.8-0.1-8.2,2l-2.8,4.1c-2.6-0.6-5.2-1.2-7.8-1.6l1.2-4.4c0.6-2.2-1.7-4.4-5-4.8l-3-0.4
				c-3.4-0.4-6.6,1.1-7.1,3.4l-1.1,4.4c-2.7-0.2-5.4-0.2-8.1-0.2l-0.6-4.5c-0.3-2.3-3.3-3.9-6.7-3.7l-3.1,0.2
				c-3.4,0.2-5.9,2.2-5.6,4.5l0.6,4.5c-2.7,0.3-5.3,0.7-7.9,1.2l-2.3-4.2c-1.2-2.1-4.7-3.2-7.9-2.4l-2.9,0.7
				c-3.2,0.8-4.9,3.2-3.7,5.3l2.3,4.2c-2.5,0.8-4.9,1.6-7.2,2.5l-3.9-3.7c-2-1.9-5.8-2.3-8.6-1l-2.5,1.2c-2.8,1.3-3.5,3.9-1.5,5.7
				l3.9,3.7c-2.1,1.2-4.1,2.4-6,3.7l-5.2-2.9c-2.6-1.5-6.5-1.2-8.7,0.5l-2,1.6c-2.2,1.7-1.8,4.3,0.8,5.8l5.2,2.9
				c-1.5,1.5-3,3-4.3,4.6l-6.1-1.9c-3.1-1-6.8-0.1-8.2,2l-1.3,1.9c-1.4,2.1-0.1,4.5,3,5.5l6.1,1.9c-0.9,1.7-1.7,3.4-2.4,5.2
				l-6.6-0.8c-3.4-0.4-6.6,1.1-7.1,3.4l-0.5,2c-0.6,2.2,1.7,4.4,5,4.8l6.6,0.8c-0.2,1.8-0.3,3.6-0.3,5.4l-6.7,0.4
				c-3.4,0.2-5.9,2.2-5.6,4.5l0.3,2.1c0.3,2.3,3.3,3.9,6.7,3.7l6.7-0.4c0.5,1.8,1.1,3.5,1.8,5.3l-6.3,1.6c-3.2,0.8-4.8,3.2-3.7,5.3
				l1.1,1.9c1.2,2.1,4.7,3.2,7.9,2.4l6.3-1.5c1.1,1.6,2.4,3.2,3.8,4.8l-5.5,2.6c-2.8,1.3-3.5,3.9-1.5,5.7l1.8,1.7
				c2,1.9,5.8,2.3,8.6,1l5.5-2.6c1.7,1.4,3.6,2.7,5.5,4l-4.3,3.4c-2.2,1.7-1.8,4.3,0.8,5.8l2.4,1.3c2.6,1.5,6.5,1.2,8.7-0.5l4.3-3.4
				c2.2,1,4.5,2,6.9,2.9l-2.8,4.1c-1.4,2.1-0.1,4.5,3,5.5l2.8,0.9c3.1,1,6.8,0.1,8.2-2l2.8-4.1c2.6,0.6,5.2,1.2,7.8,1.6l-1.2,4.4
				c-0.6,2.2,1.7,4.4,5,4.8l3,0.4c3.4,0.4,6.6-1.1,7.1-3.4l1.1-4.4c2.7,0.2,5.4,0.2,8.1,0.2l0.6,4.5c0.3,2.3,3.3,3.9,6.7,3.7
				l3.1-0.2c3.4-0.2,5.9-2.2,5.6-4.5l-0.6-4.5c2.7-0.3,5.3-0.7,7.9-1.2l2.3,4.2c1.2,2.1,4.7,3.2,7.9,2.4l2.9-0.7
				c3.2-0.8,4.8-3.2,3.7-5.3l-2.3-4.2c2.5-0.8,4.9-1.6,7.2-2.5l3.9,3.7c2,1.9,5.8,2.3,8.6,1l2.5-1.2c2.8-1.3,3.5-3.9,1.5-5.7
				l-3.9-3.7c2.1-1.2,4.1-2.4,6-3.7l5.2,2.9c2.6,1.5,6.5,1.2,8.7-0.5l2-1.6c2.2-1.7,1.8-4.3-0.8-5.8l-5.2-2.9c1.5-1.5,3-3,4.3-4.6
				l6.1,1.9c3.1,1,6.8,0.1,8.2-2l1.3-1.9C547.8,205.3,546.4,202.8,543.3,201.9z"/>
			<ellipse fill="#CCFFFF" cx="452.5" cy="179.3" rx="80.1" ry="53.4"/>
			<g>
				<ellipse fill="#FF0000" cx="452.5" cy="179.5" rx="75.7" ry="50.5"/>
				<ellipse fill="#FF0000" cx="452.5" cy="179.5" rx="75.7" ry="50.5"/>
			</g>
		</g>
		<text transform="matrix(1.5 0 0 1 386.1441 178.5269)"><tspan x="0" y="0" fill="#FFFFFF" font-family="'Arial-Black'" font-size="12">BioMechanical  </tspan><tspan x="0" y="14.4" fill="#FFFFFF" font-family="'Arial-Black'" font-size="12">       Testing</tspan></text>
	</g>
</g>
<g id="Layer_4">
	<g>
		<g>
			<path fill="#FFFFFF" d="M413.8,314.3l-6.5-2c1-1.8,1.9-3.6,2.6-5.3l7.1,0.8c3.6,0.4,7-1.2,7.6-3.5l0.6-2.1
				c0.6-2.3-1.8-4.5-5.4-4.9l-7.1-0.8c0.2-1.9,0.4-3.7,0.3-5.6l7.1-0.4c3.6-0.2,6.3-2.3,6-4.6l-0.3-2.1c-0.3-2.3-3.5-4.1-7.2-3.9
				l-7.2,0.4c-0.5-1.8-1.1-3.7-1.9-5.5l6.8-1.6c3.4-0.8,5.2-3.3,3.9-5.5l-1.1-2c-1.3-2.2-5-3.3-8.5-2.5l-6.8,1.6
				c-1.2-1.7-2.6-3.3-4-5l5.9-2.7c3-1.4,3.7-4,1.6-5.9l-1.9-1.7c-2.1-1.9-6.2-2.4-9.2-1l-5.9,2.7c-1.9-1.4-3.8-2.8-5.9-4.1l4.6-3.6
				c2.3-1.8,2-4.5-0.8-6l-2.5-1.4c-2.8-1.5-7-1.3-9.3,0.5l-4.6,3.6c-2.4-1.1-4.8-2.1-7.3-3l3-4.2c1.5-2.1,0.1-4.7-3.2-5.7l-3-0.9
				c-3.3-1-7.2-0.1-8.8,2.1l-3,4.2c-2.7-0.6-5.5-1.2-8.3-1.7l1.2-4.6c0.6-2.3-1.8-4.5-5.4-4.9l-3.2-0.4c-3.6-0.4-7,1.2-7.6,3.5
				l-1.2,4.6c-2.9-0.2-5.8-0.2-8.7-0.2l-0.6-4.6c-0.3-2.3-3.5-4.1-7.2-3.9l-3.3,0.2c-3.6,0.2-6.3,2.3-6,4.6l0.6,4.6
				c-2.8,0.3-5.7,0.7-8.5,1.2l-2.5-4.4c-1.3-2.2-5-3.3-8.5-2.5l-3.1,0.7c-3.4,0.8-5.2,3.3-3.9,5.5l2.5,4.4c-2.6,0.8-5.2,1.7-7.7,2.6
				l-4.1-3.8c-2.1-1.9-6.2-2.4-9.2-1l-2.7,1.2c-3,1.4-3.7,4-1.6,5.9l4.1,3.8c-2.2,1.2-4.3,2.5-6.4,3.8l-5.5-3
				c-2.8-1.5-7-1.3-9.3,0.5l-2.1,1.6c-2.3,1.8-2,4.5,0.8,6l5.5,3c-1.6,1.5-3.2,3.1-4.6,4.7l-6.5-2c-3.3-1-7.2-0.1-8.8,2.1l-1.4,1.9
				c-1.5,2.1-0.1,4.7,3.2,5.7l6.5,2c-1,1.8-1.9,3.6-2.6,5.3l-7.1-0.8c-3.6-0.4-7,1.2-7.6,3.5l-0.6,2.1c-0.6,2.3,1.8,4.5,5.4,4.9
				l7.1,0.8c-0.3,1.9-0.4,3.7-0.3,5.6l-7.1,0.4c-3.6,0.2-6.3,2.3-6,4.6l0.3,2.1c0.3,2.3,3.5,4.1,7.2,3.9l7.2-0.4
				c0.5,1.8,1.1,3.7,1.9,5.5l-6.8,1.6c-3.4,0.8-5.2,3.3-3.9,5.5l1.1,2c1.3,2.2,5,3.3,8.5,2.5l6.8-1.6c1.2,1.7,2.6,3.3,4,5l-5.9,2.7
				c-3,1.4-3.7,4-1.6,5.9l1.9,1.7c2.1,1.9,6.2,2.4,9.2,1l5.9-2.7c1.9,1.4,3.8,2.8,5.9,4.1l-4.6,3.6c-2.3,1.8-2,4.5,0.8,6l2.5,1.4
				c2.8,1.5,7,1.3,9.3-0.5l4.6-3.6c2.4,1.1,4.8,2.1,7.3,3l-3,4.2c-1.5,2.1-0.1,4.7,3.2,5.7l3,0.9c3.3,1,7.2,0.1,8.8-2.1l3-4.2
				c2.7,0.6,5.5,1.2,8.3,1.7l-1.2,4.6c-0.6,2.3,1.8,4.5,5.4,4.9l3.2,0.4c3.6,0.4,7-1.2,7.6-3.5l1.2-4.6c2.9,0.2,5.8,0.2,8.7,0.2
				l0.6,4.6c0.3,2.3,3.5,4.1,7.2,3.9l3.3-0.2c3.6-0.2,6.3-2.3,6-4.6l-0.6-4.6c2.8-0.3,5.7-0.7,8.5-1.2l2.5,4.4
				c1.3,2.2,5,3.3,8.5,2.5l3.1-0.7c3.4-0.8,5.2-3.3,3.9-5.5l-2.5-4.4c2.6-0.8,5.2-1.7,7.7-2.6l4.1,3.8c2.1,1.9,6.2,2.4,9.2,1
				l2.7-1.2c3-1.4,3.7-4,1.6-5.9l-4.1-3.8c2.2-1.2,4.3-2.5,6.4-3.8l5.5,3c2.8,1.5,7,1.3,9.3-0.5l2.1-1.6c2.3-1.8,2-4.5-0.8-6l-5.5-3
				c1.6-1.5,3.2-3.1,4.6-4.7l6.5,2c3.3,1,7.2,0.1,8.8-2.1l1.4-1.9C418.5,317.8,417.1,315.2,413.8,314.3z"/>
			<ellipse fill="#CCFFFF" cx="316.8" cy="291" rx="85.5" ry="55.2"/>
			<g>
				<ellipse fill="#1485CC" cx="316.8" cy="291.1" rx="80.8" ry="52.2"/>
				<ellipse fill="#1485CC" cx="316.8" cy="291.1" rx="80.8" ry="52.2"/>
			</g>
		</g>
		<text transform="matrix(1.5484 0 0 1 250.9814 273.7104)"><tspan x="0" y="0" fill="#FFFFFF" font-family="'Arial-Black'" font-size="19.3381"> </tspan><tspan x="6" y="0" fill="#FFFFFF" font-family="'ArialMT'" font-size="14">Level 1</tspan><tspan x="0" y="23.2" fill="#FFFFFF" font-family="'Arial-Black'" font-size="19.3381">Capacity</tspan></text>
	</g>
</g>
<g id="Layer_5">
	<g>
		<g>
			<path fill="#FFFFFF" d="M748.8,105.2l-4.8-1.3c0.7-1.1,1.4-2.3,1.9-3.4l5.2,0.5c2.6,0.3,5.1-0.7,5.6-2.2l0.4-1.4
				c0.5-1.5-1.3-2.9-3.9-3.2l-5.2-0.5c0.2-1.2,0.3-2.4,0.3-3.6l5.2-0.3c2.6-0.1,4.6-1.5,4.4-3l-0.2-1.4c-0.2-1.5-2.6-2.6-5.2-2.5
				l-5.2,0.3c-0.4-1.2-0.8-2.4-1.4-3.5l4.9-1c2.5-0.5,3.8-2.1,2.9-3.5l-0.8-1.3c-0.9-1.4-3.7-2.2-6.2-1.6l-4.9,1
				c-0.9-1.1-1.9-2.2-2.9-3.2l4.3-1.7c2.2-0.9,2.7-2.6,1.2-3.8l-1.4-1.1c-1.5-1.2-4.5-1.5-6.7-0.7l-4.3,1.7
				c-1.4-0.9-2.8-1.8-4.3-2.7l3.3-2.3c1.7-1.2,1.4-2.9-0.6-3.9l-1.8-0.9c-2-1-5.1-0.8-6.8,0.3l-3.4,2.3c-1.7-0.7-3.5-1.3-5.3-1.9
				l2.2-2.7c1.1-1.4,0.1-3-2.3-3.6l-2.2-0.6c-2.4-0.6-5.3,0-6.4,1.3l-2.2,2.7c-2-0.4-4-0.8-6-1.1l0.9-2.9c0.5-1.5-1.3-2.9-3.9-3.2
				l-2.4-0.2c-2.6-0.3-5.1,0.7-5.6,2.2l-0.9,2.9c-2.1-0.1-4.2-0.2-6.3-0.1l-0.5-3c-0.2-1.5-2.6-2.6-5.2-2.5l-2.4,0.1
				c-2.6,0.1-4.6,1.5-4.4,3l0.5,3c-2.1,0.2-4.1,0.5-6.2,0.8l-1.8-2.8c-0.9-1.4-3.7-2.2-6.2-1.6l-2.3,0.5c-2.5,0.5-3.8,2.1-2.9,3.5
				l1.8,2.8c-1.9,0.5-3.8,1.1-5.6,1.7l-3-2.4c-1.5-1.2-4.5-1.5-6.7-0.7l-2,0.8c-2.2,0.9-2.7,2.6-1.2,3.8l3,2.4
				c-1.6,0.8-3.2,1.6-4.7,2.4l-4-1.9c-2-1-5.1-0.8-6.8,0.4l-1.5,1.1c-1.7,1.2-1.4,2.9,0.6,3.9l4,1.9c-1.2,1-2.3,2-3.4,3.1l-4.8-1.3
				c-2.4-0.6-5.3,0-6.4,1.3l-1,1.2c-1.1,1.4-0.1,3,2.3,3.6l4.8,1.3c-0.7,1.1-1.4,2.3-1.9,3.4l-5.2-0.5c-2.6-0.3-5.1,0.7-5.6,2.2
				l-0.4,1.4c-0.5,1.5,1.3,2.9,3.9,3.2l5.2,0.5c-0.2,1.2-0.3,2.4-0.3,3.6l-5.2,0.3c-2.6,0.1-4.6,1.5-4.4,3l0.2,1.4
				c0.2,1.5,2.6,2.6,5.2,2.5l5.2-0.3c0.4,1.2,0.8,2.4,1.4,3.5l-4.9,1c-2.5,0.5-3.8,2.1-2.9,3.5l0.8,1.3c0.9,1.4,3.7,2.2,6.2,1.6
				l4.9-1c0.9,1.1,1.9,2.2,2.9,3.2l-4.3,1.7c-2.2,0.9-2.7,2.6-1.2,3.8l1.4,1.1c1.5,1.2,4.5,1.5,6.7,0.7l4.3-1.7
				c1.4,0.9,2.8,1.8,4.3,2.7l-3.4,2.3c-1.7,1.2-1.4,2.9,0.6,3.9l1.8,0.9c2,1,5.1,0.8,6.8-0.4l3.4-2.3c1.7,0.7,3.5,1.3,5.3,1.9
				l-2.2,2.7c-1.1,1.4-0.1,3,2.3,3.6l2.2,0.6c2.4,0.6,5.3,0,6.4-1.3l2.2-2.7c2,0.4,4,0.8,6,1.1l-0.9,2.9c-0.5,1.5,1.3,2.9,3.9,3.2
				l2.4,0.2c2.6,0.3,5.1-0.7,5.6-2.2l0.9-2.9c2.1,0.1,4.2,0.2,6.3,0.1l0.5,3c0.2,1.5,2.6,2.6,5.2,2.5l2.4-0.1c2.6-0.1,4.6-1.5,4.4-3
				l-0.5-3c2.1-0.2,4.1-0.5,6.2-0.8l1.8,2.8c0.9,1.4,3.7,2.2,6.2,1.6l2.3-0.5c2.5-0.5,3.8-2.1,2.9-3.5l-1.8-2.8
				c1.9-0.5,3.8-1.1,5.6-1.7l3,2.4c1.5,1.2,4.5,1.5,6.7,0.7l2-0.8c2.2-0.9,2.7-2.6,1.2-3.8l-3-2.4c1.6-0.8,3.2-1.6,4.7-2.4l4,1.9
				c2,1,5.1,0.8,6.8-0.3l1.5-1.1c1.7-1.2,1.4-2.9-0.6-3.9l-4-1.9c1.2-1,2.3-2,3.4-3.1l4.8,1.3c2.4,0.6,5.3,0,6.4-1.3l1-1.2
				C752.3,107.5,751.2,105.8,748.8,105.2z"/>
			<ellipse fill="#CCFFFF" cx="676.6" cy="89.2" rx="62.3" ry="35.6"/>
			<ellipse fill="#D9E021" cx="675.5" cy="88.6" rx="58.9" ry="33.7"/>
		</g>
		<text transform="matrix(1.75 0 0 1 626.9727 79.2658)"><tspan x="0" y="0" fill="#FFFFFF" font-family="'Arial-Black'" font-size="10">  </tspan><tspan x="5.7" y="0" fill="#FFFFFF" font-family="'Arial-Black'" font-size="9">Advanced</tspan><tspan x="0" y="10.8" fill="#FFFFFF" font-family="'Arial-Black'" font-size="9">     Care</tspan><tspan x="0" y="21.6" fill="#FFFFFF" font-family="'Arial-Black'" font-size="9">if necessary</tspan></text>
	</g>
	<g id="Mouse_Arrow">
		<g>
			<g>
				
					<linearGradient id="SVGID_1_" gradientUnits="userSpaceOnUse" x1="-7711.0205" y1="-7857.5962" x2="-7711.0205" y2="-7875.3154" gradientTransform="matrix(0.8347 3.3478 -3.3478 0.8347 -19317.6875 32521.9883)">
					<stop  offset="0" style="stop-color:#0017B8"/>
					<stop  offset="0.618" style="stop-color:#001390"/>
					<stop  offset="0.6292" style="stop-color:#000EA6"/>
					<stop  offset="0.9831" style="stop-color:#00629E"/>
				</linearGradient>
				<path fill="url(#SVGID_1_)" d="M554.2,159.6l20.6-19.8l-11.9-7.2l43.4-17.1l-18.6,42.8l-6.8-12.2l-20.6,19.8L554.2,159.6z"/>
			</g>
			<g>
				
					<linearGradient id="SVGID_2_" gradientUnits="userSpaceOnUse" x1="-7711.0205" y1="-7857.5962" x2="-7711.0205" y2="-7875.3154" gradientTransform="matrix(0.8347 3.3478 -3.3478 0.8347 -19317.6875 32521.9883)">
					<stop  offset="0" style="stop-color:#000F83;stop-opacity:0.22"/>
					<stop  offset="0.5" style="stop-color:#000D60"/>
					<stop  offset="0.5362" style="stop-color:#0C2F6C;stop-opacity:0.937"/>
					<stop  offset="0.5886" style="stop-color:#1A597A;stop-opacity:0.8459"/>
					<stop  offset="0.6439" style="stop-color:#267D87;stop-opacity:0.7497"/>
					<stop  offset="0.7016" style="stop-color:#309A91;stop-opacity:0.6492"/>
					<stop  offset="0.7625" style="stop-color:#38B199;stop-opacity:0.5432"/>
					<stop  offset="0.8281" style="stop-color:#3EC19F;stop-opacity:0.4291"/>
					<stop  offset="0.9017" style="stop-color:#41CBA2;stop-opacity:0.301"/>
					<stop  offset="1" style="stop-color:#42CEA3;stop-opacity:0.13"/>
				</linearGradient>
				<path fill="url(#SVGID_2_)" d="M554.2,159.6l20.6-19.8l-11.9-7.2l43.4-17.1l-18.6,42.8l-6.8-12.2l-20.6,19.8L554.2,159.6z"/>
			</g>
			<g opacity="0.81">
				
					<radialGradient id="SVGID_3_" cx="-7711.5879" cy="-7872.4121" r="13.4202" gradientTransform="matrix(0.7421 3.3695 -1.6848 0.3711 -6939.7544 29039.6094)" gradientUnits="userSpaceOnUse">
					<stop  offset="0" style="stop-color:#638A98"/>
					<stop  offset="0.2751" style="stop-color:#5789A3;stop-opacity:0.901"/>
					<stop  offset="0.7444" style="stop-color:#3887BE;stop-opacity:0.732"/>
					<stop  offset="1" style="stop-color:#356EC7;stop-opacity:0.64"/>
				</radialGradient>
				<path fill="url(#SVGID_3_)" d="M554.2,159.6l20.6-19.8l-11.9-7.2l43.4-17.1l-18.6,42.8l-6.8-12.2l-20.6,19.8L554.2,159.6z"/>
			</g>
			<g opacity="0.7">
				<path fill="#0000FF" d="M554.2,159.6l20.6-19.8l-11.9-7.2l43.4-17.1l-18.6,42.8l-6.8-12.2l-20.6,19.8L554.2,159.6z"/>
			</g>
			<g opacity="0.49">
				<g>
					<path fill="#FFFFFF" d="M555.4,159.9c6.9-6.7,13.8-13.3,20.8-20c0,0,0-0.5,0-0.5c-2.3-1.4-4.6-2.8-6.9-4.2
						c-1.3-0.8-2.6-1.6-3.9-2.3c-0.7-0.4-0.9,0.2,0-0.1c5.7-2.2,11.3-4.5,17-6.7c6.6-2.6,13.1-5.2,19.7-7.8c0.7-0.3,1.4-0.6,2.1-0.8
						c0.4-0.2,0.5-0.8,0.3-0.4c-0.8,1.9-1.7,3.8-2.5,5.7c-3.1,7.1-6.1,14.1-9.2,21.2c-1.2,2.9-2.5,5.7-3.7,8.6
						c-0.2,0.4-1.6,3.3-1.6,3.4c-1.5-2.8-3.1-5.5-4.6-8.3c-1.1-1.9-1.1-4-2.9-2.3c-5.1,4.9-10.2,9.8-15.3,14.8
						c-1.4,1.4-2.9,2.8-4.3,4.2c-0.1,0.1-4.4-4.5-4.9-5C555.5,159.4,555.3,159.8,555.4,159.9c1.3,1.4,2.6,2.7,4,4.1
						c1.1,1.1,0.9,0.9,1.9-0.1c3.6-3.4,7.2-6.9,10.7-10.3c2.9-2.8,5.8-5.6,8.7-8.4c0.4-0.3,5.1,8.4,5.8,9.5c1.6,2.9,1.5,0.7,2.5-1.7
						c2-4.6,4-9.2,6-13.9c3.2-7.3,6.3-14.6,9.5-21.9c0-0.1,0-0.5,0-0.5c-13.3,5.2-26.6,10.5-39.8,15.7c0,0,0,0.5,0,0.5
						c3.3,2,6.5,3.9,9.8,5.9c0.5,0.3,1,0.6,1.6,0.9c-0.3-0.2,0.3-0.6-0.4,0c-1.1,1.1-2.2,2.1-3.3,3.2c-5.7,5.4-11.3,10.9-17,16.3
						C555.3,159.4,555.5,159.8,555.4,159.9z"/>
				</g>
			</g>
			<g opacity="0.58">
				<g>
					<path fill="#000E73" d="M554.2,160.2c6.9-6.6,13.7-13.2,20.6-19.8c0.1-0.1,0.1-1.2,0-1.2c-4-2.4-8-4.8-11.9-7.2
						c0,0.4,0,0.8,0,1.2c14.5-5.7,28.9-11.4,43.4-17.1c0-0.4,0-0.8,0-1.2c-3.4,7.7-6.7,15.5-10.1,23.2c-2.1,4.8-4.2,9.7-6.3,14.5
						c-0.6,1.4-1.2,2.8-1.8,4.2c-0.5,1.2-0.4,0.9-1-0.3c-0.6-1-6.5-10.7-6.2-11c-3.1,2.9-6.1,5.9-9.2,8.8
						c-3.5,3.4-7.1,6.8-10.6,10.2c-1.7,1.6-5.4-4.1-6.8-5.5C554.4,159.2,554,160,554.2,160.2c1.1,1.1,5.4,6.8,6.5,5.8
						c3.6-3.5,7.2-7,10.9-10.5c3-2.9,6.1-5.8,9.1-8.7c-0.1,0.1,5.6,9.7,6.3,10.9c1.3,2.3,1.9-1.7,2.6-3.3c2.2-5,4.4-10.1,6.6-15.1
						c3.4-7.7,6.7-15.5,10.1-23.2c0.1-0.2-0.1-1.2,0-1.2c-14.5,5.7-28.9,11.4-43.4,17.1c0,0-0.1,1.2,0,1.2c4,2.4,8,4.8,11.9,7.2
						c0-0.4,0-0.8,0-1.2c-6.9,6.6-13.7,13.2-20.6,19.8C554,159.2,554.4,160,554.2,160.2z"/>
				</g>
			</g>
		</g>
	</g>
	<path fill="#FFFFFF" d="M518,73.6l-4.8-1.3c0.7-1.1,1.4-2.3,1.9-3.4l5.2,0.5c2.6,0.3,5.1-0.7,5.6-2.2l0.4-1.4
		c0.5-1.5-1.3-2.9-3.9-3.2l-5.2-0.5c0.2-1.2,0.3-2.4,0.3-3.6l5.2-0.3c2.6-0.1,4.6-1.5,4.4-3l-0.2-1.4c-0.2-1.5-2.6-2.6-5.2-2.5
		l-5.2,0.3c-0.4-1.2-0.8-2.4-1.4-3.5l4.9-1c2.5-0.5,3.8-2.1,2.9-3.5l-0.8-1.3c-0.9-1.4-3.7-2.2-6.2-1.6l-4.9,1
		c-0.9-1.1-1.9-2.2-2.9-3.2l4.3-1.7c2.2-0.9,2.7-2.6,1.2-3.8l-1.4-1.1c-1.5-1.2-4.5-1.5-6.7-0.7l-4.3,1.7c-1.4-0.9-2.8-1.8-4.3-2.7
		L500,28c1.7-1.2,1.4-2.9-0.6-3.9l-1.8-0.9c-2-1-5.1-0.8-6.8,0.3l-3.4,2.3c-1.7-0.7-3.5-1.3-5.3-1.9l2.2-2.7c1.1-1.4,0.1-3-2.3-3.6
		l-2.2-0.6c-2.4-0.6-5.3,0-6.4,1.3l-2.2,2.7c-2-0.4-4-0.8-6-1.1l0.9-2.9c0.5-1.5-1.3-2.9-3.9-3.2l-2.4-0.2c-2.6-0.3-5.1,0.7-5.6,2.2
		l-0.9,2.9c-2.1-0.1-4.2-0.2-6.3-0.1l-0.5-3c-0.2-1.5-2.6-2.6-5.2-2.5l-2.4,0.1c-2.6,0.1-4.6,1.5-4.4,3l0.5,3
		c-2.1,0.2-4.1,0.5-6.2,0.8l-1.8-2.8c-0.9-1.4-3.7-2.2-6.2-1.6l-2.3,0.5c-2.5,0.5-3.8,2.1-2.9,3.5l1.8,2.8c-1.9,0.5-3.8,1.1-5.6,1.7
		l-3-2.4c-1.5-1.2-4.5-1.5-6.7-0.7l-2,0.8c-2.2,0.9-2.7,2.6-1.2,3.8l3,2.4c-1.6,0.8-3.2,1.6-4.7,2.4l-4-1.9c-2-1-5.1-0.8-6.8,0.4
		l-1.5,1.1c-1.7,1.2-1.4,2.9,0.6,3.9l4,1.9c-1.2,1-2.3,2-3.4,3.1l-4.8-1.3c-2.4-0.6-5.3,0-6.4,1.3l-1,1.2c-1.1,1.4-0.1,3,2.3,3.6
		l4.8,1.3c-0.7,1.1-1.4,2.3-1.9,3.4l-5.2-0.5c-2.6-0.3-5.1,0.7-5.6,2.2l-0.4,1.4c-0.5,1.5,1.3,2.9,3.9,3.2l5.2,0.5
		c-0.2,1.2-0.3,2.4-0.3,3.6l-5.2,0.3c-2.6,0.1-4.6,1.5-4.4,3l0.2,1.4c0.2,1.5,2.6,2.6,5.2,2.5l5.2-0.3c0.4,1.2,0.8,2.4,1.4,3.5
		l-4.9,1c-2.5,0.5-3.8,2.1-2.9,3.5l0.8,1.3c0.9,1.4,3.7,2.2,6.2,1.6l4.9-1c0.9,1.1,1.9,2.2,2.9,3.2l-4.3,1.7
		c-2.2,0.9-2.7,2.6-1.2,3.8l1.4,1.1c1.5,1.2,4.5,1.5,6.7,0.7l4.3-1.7c1.4,0.9,2.8,1.8,4.3,2.7l-3.4,2.3c-1.7,1.2-1.4,2.9,0.6,3.9
		l1.8,0.9c2,1,5.1,0.8,6.8-0.4l3.4-2.3c1.7,0.7,3.5,1.3,5.3,1.9l-2.2,2.7c-1.1,1.4-0.1,3,2.3,3.6l2.2,0.6c2.4,0.6,5.3,0,6.4-1.3
		l2.2-2.7c2,0.4,4,0.8,6,1.1l-0.9,2.9c-0.5,1.5,1.3,2.9,3.9,3.2l2.4,0.2c2.6,0.3,5.1-0.7,5.6-2.2l0.9-2.9c2.1,0.1,4.2,0.2,6.3,0.1
		l0.5,3c0.2,1.5,2.6,2.6,5.2,2.5l2.4-0.1c2.6-0.1,4.6-1.5,4.4-3l-0.5-3c2.1-0.2,4.1-0.5,6.2-0.8l1.8,2.8c0.9,1.4,3.7,2.2,6.2,1.6
		l2.3-0.5c2.5-0.5,3.8-2.1,2.9-3.5L477,95c1.9-0.5,3.8-1.1,5.6-1.7l3,2.4c1.5,1.2,4.5,1.5,6.7,0.7l2-0.8c2.2-0.9,2.7-2.6,1.2-3.8
		l-3-2.4c1.6-0.8,3.2-1.6,4.7-2.4l4,1.9c2,1,5.1,0.8,6.8-0.3l1.5-1.1c1.7-1.2,1.4-2.9-0.6-3.9l-4-1.9c1.2-1,2.3-2,3.4-3.1l4.8,1.3
		c2.4,0.6,5.3,0,6.4-1.3l1-1.2C521.4,75.9,520.4,74.3,518,73.6z"/>
	<g>
		
			<radialGradient id="SVGID_4_" cx="540.533" cy="30.0744" r="105.4534" fx="543.392" fy="57.9719" gradientTransform="matrix(0.7813 0 0 0.4465 23.3957 54.8401)" gradientUnits="userSpaceOnUse">
			<stop  offset="0.4869" style="stop-color:#FFFFFF"/>
			<stop  offset="1" style="stop-color:#E1E8EC"/>
		</radialGradient>
		<ellipse fill="url(#SVGID_4_)" cx="446.3" cy="58.7" rx="62.3" ry="35.6"/>
		<g>
			<ellipse fill="#39B54A" cx="445.8" cy="58.5" rx="58.9" ry="33.7"/>
		</g>
	</g>
</g>
<g id="Layer_6">
	<g>
		<g>
			<path fill="#FFFFFF" d="M695.8,307.2l-6.5-2c1-1.8,1.9-3.6,2.6-5.3l7.1,0.8c3.6,0.4,7-1.2,7.6-3.5l0.6-2.1
				c0.6-2.3-1.8-4.5-5.4-4.9l-7.1-0.8c0.2-1.9,0.4-3.7,0.3-5.6l7.1-0.4c3.6-0.2,6.3-2.3,6-4.6l-0.3-2.1c-0.3-2.3-3.5-4.1-7.2-3.9
				l-7.2,0.4c-0.5-1.8-1.1-3.7-1.9-5.5l6.8-1.6c3.4-0.8,5.2-3.3,3.9-5.5l-1.1-2c-1.3-2.2-5-3.3-8.5-2.5l-6.8,1.6
				c-1.2-1.7-2.6-3.3-4-5l5.9-2.7c3-1.4,3.7-4,1.6-5.9l-1.9-1.7c-2.1-1.9-6.2-2.4-9.2-1l-5.9,2.7c-1.9-1.4-3.8-2.8-5.9-4.1l4.6-3.6
				c2.3-1.8,2-4.5-0.8-6l-2.5-1.4c-2.8-1.5-7-1.3-9.3,0.5l-4.6,3.6c-2.4-1.1-4.8-2.1-7.3-3l3-4.2c1.5-2.1,0.1-4.7-3.2-5.7l-3-0.9
				c-3.3-1-7.2-0.1-8.8,2.1l-3,4.2c-2.7-0.6-5.5-1.2-8.3-1.7l1.2-4.6c0.6-2.3-1.8-4.5-5.4-4.9l-3.2-0.4c-3.6-0.4-7,1.2-7.6,3.5
				l-1.2,4.6c-2.9-0.2-5.8-0.2-8.7-0.2l-0.6-4.6c-0.3-2.3-3.5-4.1-7.2-3.9l-3.3,0.2c-3.6,0.2-6.3,2.3-6,4.6l0.6,4.6
				c-2.8,0.3-5.7,0.7-8.5,1.2l-2.5-4.4c-1.3-2.2-5-3.3-8.5-2.5l-3.1,0.7c-3.4,0.8-5.2,3.3-3.9,5.5l2.5,4.4c-2.6,0.8-5.2,1.7-7.7,2.6
				l-4.1-3.8c-2.1-1.9-6.2-2.4-9.2-1l-2.7,1.2c-3,1.4-3.7,4-1.6,5.9l4.1,3.8c-2.2,1.2-4.3,2.5-6.4,3.8l-5.5-3
				c-2.8-1.5-7-1.3-9.3,0.5l-2.1,1.6c-2.3,1.8-2,4.5,0.8,6l5.5,3c-1.6,1.5-3.2,3.1-4.6,4.7l-6.5-2c-3.3-1-7.2-0.1-8.8,2.1l-1.4,1.9
				c-1.5,2.1-0.1,4.7,3.2,5.7l6.5,2c-1,1.8-1.9,3.6-2.6,5.3l-7.1-0.8c-3.6-0.4-7,1.2-7.6,3.5l-0.6,2.1c-0.6,2.3,1.8,4.5,5.4,4.9
				l7.1,0.8c-0.3,1.9-0.4,3.7-0.3,5.6l-7.1,0.4c-3.6,0.2-6.3,2.3-6,4.6l0.3,2.1c0.3,2.3,3.5,4.1,7.2,3.9l7.2-0.4
				c0.5,1.8,1.1,3.7,1.9,5.5l-6.8,1.6c-3.4,0.8-5.2,3.3-3.9,5.5l1.1,2c1.3,2.2,5,3.3,8.5,2.5l6.8-1.6c1.2,1.7,2.6,3.3,4,5l-5.9,2.7
				c-3,1.4-3.7,4-1.6,5.9l1.9,1.7c2.1,1.9,6.2,2.4,9.2,1l5.9-2.7c1.9,1.4,3.8,2.8,5.9,4.1l-4.6,3.6c-2.3,1.8-2,4.5,0.8,6l2.5,1.4
				c2.8,1.5,7,1.3,9.3-0.5l4.6-3.6c2.4,1.1,4.8,2.1,7.3,3l-3,4.2c-1.5,2.1-0.1,4.7,3.2,5.7l3,0.9c3.3,1,7.2,0.1,8.8-2.1l3-4.2
				c2.7,0.6,5.5,1.2,8.3,1.7l-1.2,4.6c-0.6,2.3,1.8,4.5,5.4,4.9l3.2,0.4c3.6,0.4,7-1.2,7.6-3.5l1.2-4.6c2.9,0.2,5.8,0.2,8.7,0.2
				l0.6,4.6c0.3,2.3,3.5,4.1,7.2,3.9l3.3-0.2c3.6-0.2,6.3-2.3,6-4.6l-0.6-4.6c2.8-0.3,5.7-0.7,8.5-1.2l2.5,4.4
				c1.3,2.2,5,3.3,8.5,2.5l3.1-0.7c3.4-0.8,5.2-3.3,3.9-5.5l-2.5-4.4c2.6-0.8,5.2-1.7,7.7-2.6l4.1,3.8c2.1,1.9,6.2,2.4,9.2,1
				l2.7-1.2c3-1.4,3.7-4,1.6-5.9l-4.1-3.8c2.2-1.2,4.3-2.5,6.4-3.8l5.5,3c2.8,1.5,7,1.3,9.3-0.5l2.1-1.6c2.3-1.8,2-4.5-0.8-6l-5.5-3
				c1.6-1.5,3.2-3.1,4.6-4.7l6.5,2c3.3,1,7.2,0.1,8.8-2.1l1.4-1.9C700.6,310.7,699.1,308.1,695.8,307.2z"/>
			<ellipse fill="#CCFFFF" cx="598.9" cy="283.9" rx="85.5" ry="55.2"/>
			<g>
				<ellipse fill="#1485CC" cx="598.9" cy="284" rx="80.8" ry="52.2"/>
				<ellipse fill="#1485CC" cx="598.9" cy="284" rx="80.8" ry="52.2"/>
			</g>
			<text transform="matrix(1.5484 0 0 1 525.4379 272.1056)"><tspan x="0" y="0" fill="#FFFFFF" font-family="'Arial-Black'" font-size="19.3381"> </tspan><tspan x="6" y="0" fill="#FFFFFF" font-family="'ArialMT'" font-size="14">Level 2</tspan><tspan x="0" y="20.4" fill="#FFFFFF" font-family="'Arial-Black'" font-size="17">Endurance</tspan></text>
		</g>
	</g>
	<text transform="matrix(1.5484 0 0 1 388.7058 63.88)" fill="#FFFFFF" font-family="'Arial-Black'" font-size="20">START</text>
</g>
<g id="Layer_7">
	<g>
		<g>
			<path fill="#FFFFFF" d="M769.4,485.5l-6.8-2.1c1-1.9,1.9-3.8,2.7-5.7l7.4,0.8c3.7,0.4,7.3-1.2,7.9-3.7l0.6-2.2
				c0.6-2.5-1.9-4.8-5.6-5.2l-7.4-0.8c0.3-2,0.4-4,0.4-6l7.4-0.4c3.8-0.2,6.6-2.4,6.2-4.9l-0.3-2.3c-0.3-2.5-3.7-4.3-7.5-4.1
				l-7.5,0.4c-0.5-2-1.2-3.9-2-5.8l7-1.7c3.6-0.9,5.4-3.5,4.1-5.8l-1.2-2.1c-1.3-2.4-5.3-3.6-8.8-2.7l-7,1.7
				c-1.3-1.8-2.7-3.6-4.2-5.3l6.1-2.8c3.1-1.4,3.8-4.3,1.7-6.3l-2-1.9c-2.2-2-6.5-2.5-9.6-1.1l-6.1,2.8c-1.9-1.5-4-3-6.1-4.4
				l4.8-3.8c2.4-1.9,2-4.8-0.9-6.4l-2.6-1.5c-2.9-1.6-7.2-1.3-9.7,0.6l-4.8,3.8c-2.5-1.1-5-2.2-7.6-3.2l3.1-4.5c1.6-2.3,0.1-5-3.3-6
				l-3.1-1c-3.4-1.1-7.5-0.1-9.1,2.2l-3.1,4.5c-2.9-0.7-5.7-1.3-8.6-1.8l1.3-4.9c0.6-2.5-1.9-4.8-5.6-5.2l-3.4-0.4
				c-3.7-0.4-7.3,1.2-7.9,3.7L677,395c-3-0.2-6-0.2-9-0.2l-0.7-4.9c-0.3-2.5-3.7-4.3-7.5-4.1l-3.4,0.2c-3.8,0.2-6.6,2.4-6.2,4.9
				l0.7,4.9c-3,0.3-5.9,0.8-8.8,1.3l-2.6-4.6c-1.3-2.3-5.3-3.6-8.8-2.7l-3.2,0.8c-3.6,0.9-5.4,3.5-4.1,5.8l2.6,4.6
				c-2.7,0.8-5.4,1.8-8,2.8l-4.3-4c-2.2-2-6.5-2.5-9.6-1.1l-2.8,1.3c-3.1,1.4-3.8,4.3-1.7,6.3l4.3,4c-2.3,1.3-4.5,2.6-6.6,4
				l-5.7-3.2c-2.9-1.6-7.2-1.3-9.7,0.6l-2.2,1.7c-2.4,1.9-2,4.8,0.9,6.4l5.7,3.2c-1.7,1.6-3.3,3.3-4.8,5l-6.8-2.1
				c-3.4-1.1-7.5-0.1-9.1,2.2l-1.4,2.1c-1.6,2.3-0.1,5,3.3,6l6.8,2.1c-1,1.9-1.9,3.8-2.7,5.7l-7.4-0.8c-3.7-0.4-7.3,1.2-7.9,3.7
				l-0.6,2.2c-0.6,2.5,1.9,4.8,5.6,5.2l7.4,0.8c-0.3,2-0.4,4-0.4,6l-7.4,0.4c-3.8,0.2-6.6,2.4-6.2,4.9l0.3,2.3
				c0.3,2.5,3.7,4.3,7.5,4.1l7.5-0.4c0.5,2,1.2,3.9,2,5.8l-7,1.7c-3.6,0.9-5.4,3.5-4.1,5.8l1.2,2.1c1.3,2.3,5.3,3.6,8.8,2.7l7-1.7
				c1.3,1.8,2.7,3.6,4.2,5.3l-6.1,2.8c-3.1,1.4-3.8,4.3-1.7,6.3l2,1.9c2.2,2,6.5,2.5,9.6,1.1l6.1-2.8c1.9,1.5,4,3,6.1,4.4l-4.8,3.8
				c-2.4,1.9-2,4.8,0.9,6.4l2.6,1.5c2.9,1.6,7.2,1.3,9.7-0.6l4.8-3.8c2.5,1.1,5,2.2,7.6,3.2l-3.1,4.5c-1.6,2.3-0.1,5,3.3,6l3.1,0.9
				c3.4,1.1,7.5,0.1,9.1-2.2l3.1-4.5c2.9,0.7,5.7,1.3,8.6,1.8l-1.3,4.9c-0.6,2.5,1.9,4.8,5.6,5.2l3.4,0.4c3.7,0.4,7.3-1.2,7.9-3.7
				l1.3-4.9c3,0.2,6,0.2,9,0.2l0.7,4.9c0.3,2.5,3.7,4.3,7.5,4.1l3.4-0.2c3.8-0.2,6.6-2.4,6.2-4.9l-0.7-4.9c3-0.3,5.9-0.8,8.8-1.3
				l2.6,4.6c1.3,2.4,5.3,3.6,8.8,2.7l3.2-0.8c3.6-0.9,5.4-3.5,4.1-5.8l-2.6-4.6c2.7-0.8,5.4-1.8,8-2.8l4.3,4c2.2,2,6.5,2.5,9.6,1.1
				l2.8-1.3c3.1-1.4,3.8-4.3,1.7-6.3l-4.3-4c2.3-1.3,4.5-2.6,6.6-4l5.7,3.2c2.9,1.6,7.2,1.3,9.7-0.6l2.2-1.7c2.4-1.9,2-4.8-0.9-6.4
				l-5.7-3.2c1.7-1.6,3.3-3.3,4.8-5l6.8,2.1c3.4,1.1,7.5,0.1,9.1-2.2l1.4-2.1C774.3,489.2,772.8,486.5,769.4,485.5z"/>
			<ellipse fill="#99FFFF" cx="668.4" cy="460.7" rx="89" ry="58.8"/>
			<g>
				<ellipse fill="#0971B3" cx="668.4" cy="460.9" rx="84.2" ry="55.5"/>
				<ellipse fill="#0971B3" cx="668.4" cy="460.9" rx="84.2" ry="55.5"/>
			</g>
		</g>
		<text transform="matrix(1.5484 0 0 1 594.2123 442.9285)"><tspan x="0" y="0" fill="#FFFFFF" font-family="'ArialMT'" font-size="14">Level 3</tspan><tspan x="0" y="26.4" fill="#FFFFFF" font-family="'Arial-Black'" font-size="22">Strength</tspan></text>
	</g>
</g>
<g id="Layer_8">
	<g>
		<g>
			<path fill="#FFFFFF" d="M364.7,493.1l-6.8-2.1c1-1.9,1.9-3.8,2.7-5.7l7.4,0.8c3.7,0.4,7.3-1.2,7.9-3.7l0.6-2.2
				c0.6-2.5-1.9-4.8-5.6-5.2l-7.4-0.8c0.3-2,0.4-4,0.4-6l7.4-0.4c3.8-0.2,6.6-2.4,6.2-4.9l-0.3-2.3c-0.3-2.5-3.7-4.3-7.5-4.1
				l-7.5,0.4c-0.5-2-1.2-3.9-2-5.8l7-1.7c3.6-0.9,5.4-3.5,4.1-5.8l-1.2-2.1c-1.3-2.4-5.3-3.6-8.8-2.7l-7,1.7
				c-1.3-1.8-2.7-3.6-4.2-5.3l6.1-2.8c3.1-1.4,3.8-4.3,1.7-6.3l-2-1.9c-2.2-2-6.5-2.5-9.6-1.1l-6.1,2.8c-1.9-1.5-4-3-6.1-4.4
				l4.8-3.8c2.4-1.9,2-4.8-0.9-6.4l-2.6-1.5c-2.9-1.6-7.2-1.3-9.7,0.6l-4.8,3.8c-2.5-1.1-5-2.2-7.6-3.2l3.1-4.5c1.6-2.3,0.1-5-3.3-6
				l-3.1-1c-3.4-1.1-7.5-0.1-9.1,2.2l-3.1,4.5c-2.9-0.7-5.7-1.3-8.6-1.8l1.3-4.9c0.6-2.5-1.9-4.8-5.6-5.2l-3.4-0.4
				c-3.7-0.4-7.3,1.2-7.9,3.7l-1.3,4.9c-3-0.2-6-0.2-9-0.2l-0.7-4.9c-0.3-2.5-3.7-4.3-7.5-4.1l-3.4,0.2c-3.8,0.2-6.6,2.4-6.2,4.9
				l0.7,4.9c-3,0.3-5.9,0.8-8.8,1.3l-2.6-4.6c-1.3-2.3-5.3-3.6-8.8-2.7l-3.2,0.8c-3.6,0.9-5.4,3.5-4.1,5.8l2.6,4.6
				c-2.7,0.8-5.4,1.8-8,2.8l-4.3-4c-2.2-2-6.5-2.5-9.6-1.1l-2.8,1.3c-3.1,1.4-3.8,4.3-1.7,6.3l4.3,4c-2.3,1.3-4.5,2.6-6.6,4
				l-5.7-3.2c-2.9-1.6-7.2-1.3-9.7,0.6l-2.2,1.7c-2.4,1.9-2,4.8,0.9,6.4l5.7,3.2c-1.7,1.6-3.3,3.3-4.8,5l-6.8-2.1
				c-3.4-1.1-7.5-0.1-9.1,2.2l-1.4,2.1c-1.6,2.3-0.1,5,3.3,6l6.8,2.1c-1,1.9-1.9,3.8-2.7,5.7l-7.4-0.8c-3.7-0.4-7.3,1.2-7.9,3.7
				l-0.6,2.2c-0.6,2.5,1.9,4.8,5.6,5.2l7.4,0.8c-0.3,2-0.4,4-0.4,6l-7.4,0.4c-3.8,0.2-6.6,2.4-6.2,4.9l0.3,2.3
				c0.3,2.5,3.7,4.3,7.5,4.1l7.5-0.4c0.5,2,1.2,3.9,2,5.8l-7,1.7c-3.6,0.9-5.4,3.5-4.1,5.8l1.2,2.1c1.3,2.3,5.3,3.6,8.8,2.7l7-1.7
				c1.3,1.8,2.7,3.6,4.2,5.3l-6.1,2.8c-3.1,1.4-3.8,4.3-1.7,6.3l2,1.9c2.2,2,6.5,2.5,9.6,1.1l6.1-2.8c1.9,1.5,4,3,6.1,4.4l-4.8,3.8
				c-2.4,1.9-2,4.8,0.9,6.4l2.6,1.5c2.9,1.6,7.2,1.3,9.7-0.6l4.8-3.8c2.5,1.1,5,2.2,7.6,3.2l-3.1,4.5c-1.6,2.3-0.1,5,3.3,6l3.1,0.9
				c3.4,1.1,7.5,0.1,9.1-2.2l3.1-4.5c2.9,0.7,5.7,1.3,8.6,1.8l-1.3,4.9c-0.6,2.5,1.9,4.8,5.6,5.2l3.4,0.4c3.7,0.4,7.3-1.2,7.9-3.7
				l1.3-4.9c3,0.2,6,0.2,9,0.2l0.7,4.9c0.3,2.5,3.7,4.3,7.5,4.1l3.4-0.2c3.8-0.2,6.6-2.4,6.2-4.9l-0.7-4.9c3-0.3,5.9-0.8,8.8-1.3
				l2.6,4.6c1.3,2.4,5.3,3.6,8.8,2.7l3.2-0.8c3.6-0.9,5.4-3.5,4.1-5.8l-2.6-4.6c2.7-0.8,5.4-1.8,8-2.8l4.3,4c2.2,2,6.5,2.5,9.6,1.1
				l2.8-1.3c3.1-1.4,3.8-4.3,1.7-6.3l-4.3-4c2.3-1.3,4.5-2.6,6.6-4l5.7,3.2c2.9,1.6,7.2,1.3,9.7-0.6l2.2-1.7c2.4-1.9,2-4.8-0.9-6.4
				l-5.7-3.2c1.7-1.6,3.3-3.3,4.8-5l6.8,2.1c3.4,1.1,7.5,0.1,9.1-2.2l1.4-2.1C369.6,496.8,368.1,494.1,364.7,493.1z"/>
			<ellipse fill="#CCFFFF" cx="263.7" cy="468.3" rx="89" ry="58.8"/>
			<g>
				<ellipse fill="#0971B3" cx="263.7" cy="468.5" rx="84.2" ry="55.5"/>
				<ellipse fill="#0971B3" cx="263.7" cy="468.5" rx="84.2" ry="55.5"/>
			</g>
		</g>
		<text transform="matrix(1.5484 0 0 1 201.613 446.8834)"><tspan x="0" y="0" fill="#FFFFFF" font-family="'ArialMT'" font-size="14">Level 4</tspan><tspan x="0" y="31.2" fill="#FFFFFF" font-family="'Arial-Black'" font-size="26" letter-spacing="-0.6">Power</tspan></text>
	</g>
</g>
<g id="Layer_9">
	<g>
		<g>
			<path fill="#FFFFFF" d="M567.2,573l-6.9-2.1c1-1.9,2-3.8,2.7-5.8l7.5,0.9c3.8,0.4,7.4-1.2,8-3.7l0.6-2.3c0.7-2.5-1.9-4.9-5.7-5.3
				l-7.4-0.9c0.3-2,0.4-4,0.4-6l7.5-0.4c3.8-0.2,6.6-2.5,6.3-5l-0.3-2.3c-0.3-2.5-3.7-4.4-7.5-4.2l-7.5,0.5c-0.5-2-1.2-3.9-2-5.9
				l7.1-1.7c3.6-0.9,5.5-3.5,4.1-5.9l-1.2-2.2c-1.3-2.4-5.3-3.6-8.9-2.7l-7.1,1.7c-1.3-1.8-2.7-3.6-4.2-5.3l6.2-2.9
				c3.1-1.5,3.9-4.3,1.7-6.4l-2-1.9c-2.2-2.1-6.5-2.6-9.7-1.1l-6.2,2.9c-2-1.5-4-3-6.2-4.4l4.8-3.8c2.5-1.9,2.1-4.8-0.9-6.5
				l-2.7-1.5c-2.9-1.6-7.3-1.4-9.8,0.6l-4.8,3.8c-2.5-1.1-5.1-2.2-7.7-3.2l3.2-4.5c1.6-2.3,0.1-5-3.4-6.1l-3.2-1
				c-3.5-1.1-7.6-0.1-9.2,2.2l-3.2,4.5c-2.9-0.7-5.8-1.3-8.7-1.8l1.3-4.9c0.7-2.5-1.9-4.9-5.7-5.3l-3.4-0.4c-3.8-0.4-7.4,1.2-8,3.7
				l-1.3,4.9c-3.1-0.2-6.1-0.3-9.1-0.2l-0.7-5c-0.3-2.5-3.7-4.4-7.6-4.2l-3.5,0.2c-3.8,0.2-6.6,2.5-6.3,5l0.7,5
				c-3,0.4-6,0.8-8.9,1.3l-2.6-4.7c-1.3-2.4-5.3-3.6-8.9-2.7l-3.3,0.8c-3.6,0.9-5.5,3.5-4.1,5.9l2.6,4.7c-2.8,0.9-5.5,1.8-8.1,2.8
				l-4.4-4.1c-2.2-2.1-6.5-2.6-9.7-1.1l-2.8,1.3c-3.1,1.5-3.9,4.3-1.7,6.4l4.4,4.1c-2.3,1.3-4.6,2.7-6.7,4.1l-5.8-3.2
				c-2.9-1.6-7.3-1.4-9.8,0.6l-2.2,1.8c-2.5,1.9-2.1,4.8,0.9,6.5l5.8,3.2c-1.7,1.6-3.4,3.3-4.9,5.1l-6.9-2.1
				c-3.5-1.1-7.6-0.1-9.2,2.2l-1.5,2.1c-1.6,2.3-0.1,5,3.4,6.1l6.9,2.1c-1.1,1.9-2,3.8-2.7,5.8l-7.5-0.9c-3.8-0.4-7.4,1.2-8,3.7
				l-0.6,2.3c-0.7,2.5,1.9,4.9,5.7,5.3l7.4,0.9c-0.3,2-0.4,4-0.4,6l-7.5,0.5c-3.8,0.2-6.6,2.5-6.3,5l0.3,2.3
				c0.3,2.5,3.7,4.4,7.5,4.2l7.6-0.5c0.5,2,1.2,3.9,2,5.9l-7.1,1.7c-3.6,0.9-5.5,3.5-4.1,5.9l1.2,2.2c1.3,2.4,5.3,3.6,8.9,2.7
				l7.1-1.7c1.3,1.8,2.7,3.6,4.2,5.3l-6.2,2.9c-3.1,1.5-3.9,4.3-1.7,6.4l2,1.9c2.2,2.1,6.5,2.6,9.7,1.1l6.2-2.9c2,1.5,4,3,6.2,4.4
				l-4.8,3.8c-2.5,1.9-2.1,4.8,0.9,6.5l2.7,1.5c2.9,1.6,7.3,1.4,9.8-0.6l4.8-3.8c2.5,1.1,5.1,2.2,7.7,3.2l-3.2,4.5
				c-1.6,2.3-0.1,5,3.4,6.1l3.2,1c3.5,1.1,7.6,0.1,9.2-2.2l3.2-4.5c2.9,0.7,5.8,1.3,8.7,1.8l-1.3,4.9c-0.7,2.5,1.9,4.9,5.7,5.3
				l3.4,0.4c3.8,0.4,7.4-1.2,8-3.7l1.3-4.9c3.1,0.2,6.1,0.3,9.1,0.2l0.7,5c0.3,2.5,3.7,4.4,7.5,4.2l3.5-0.2c3.8-0.2,6.6-2.5,6.3-5
				l-0.7-5c3-0.4,6-0.8,8.9-1.3l2.6,4.7c1.3,2.4,5.3,3.6,8.9,2.7l3.3-0.8c3.6-0.9,5.5-3.5,4.1-5.9l-2.6-4.7c2.8-0.9,5.5-1.8,8.1-2.8
				l4.4,4.1c2.2,2.1,6.5,2.6,9.7,1.1l2.8-1.3c3.1-1.5,3.9-4.3,1.7-6.4l-4.4-4.1c2.3-1.3,4.6-2.7,6.7-4.1l5.8,3.2
				c2.9,1.6,7.3,1.4,9.8-0.6l2.2-1.8c2.5-1.9,2.1-4.8-0.9-6.5l-5.8-3.2c1.7-1.6,3.4-3.3,4.9-5.1l6.9,2.1c3.5,1.1,7.6,0.1,9.2-2.2
				l1.5-2.1C572.2,576.8,570.7,574.1,567.2,573z"/>
			<ellipse fill="#CCFFFF" cx="465" cy="547.9" rx="90.1" ry="59.5"/>
			<g>
				<ellipse fill="#FF0000" cx="465" cy="548.1" rx="85.2" ry="56.2"/>
				<ellipse fill="#FF0000" cx="465" cy="548.1" rx="85.2" ry="56.2"/>
			</g>
		</g>
		<text transform="matrix(1.5 0 0 1 407.5194 540.471)"><tspan x="0" y="0" fill="#FFFFFF" font-family="'Arial-Black'" font-size="16" letter-spacing="-0.7">COMBINE</tspan><tspan x="0" y="19.2" fill="#FFFFFF" font-family="'Arial-Black'" font-size="16" letter-spacing="-0.7">REPORT</tspan></text>
	</g>
	<rect x="33.5" y="19.6" fill="none" width="266.7" height="169.3"/>
	<text transform="matrix(1 0 0 1 33.4849 45.4102)"><tspan x="0" y="0" fill="#F9F4F4" font-family="'Arial-Black'" font-size="36"> BOOTHBY</tspan><tspan x="0" y="43.2" fill="#F9F4F4" font-family="'Arial-Black'" font-size="36">    CARE</tspan><tspan x="0" y="86.4" fill="#F9F4F4" font-family="'Arial-Black'" font-size="36">   MODEL</tspan></text>
</g>
</svg>
