<?xml version="1.0" encoding="utf-8"?>
<!-- Generator: Adobe Illustrator 17.1.0, SVG Export Plug-In . SVG Version: 6.00 Build 0)  -->
<!DOCTYPE svg PUBLIC "-//W3C//DTD SVG 1.1//EN" "http://www.w3.org/Graphics/SVG/1.1/DTD/svg11.dtd">
<svg version="1.1" id="Layer_1" xmlns="http://www.w3.org/2000/svg" xmlns:xlink="http://www.w3.org/1999/xlink" x="0px" y="0px"
	 viewBox="0 0 300 300" enable-background="new 0 0 300 300" xml:space="preserve">
<symbol  id="Ribbon_8" viewBox="-35.7 -9.9 71.4 19.8">
	<g>
		<path fill="#302C23" d="M-34.9,9.4h13c0.7,0,1.2-0.3,1.2-0.6V7.1h41.6v1.8c0,0.3,0.5,0.6,1.2,0.6h13l-4.7-8.3l4.7-8.3h-9.4v-1.8
			c0-0.3-0.5-0.6-1.2-0.6h-48.6c-0.7,0-1.2,0.3-1.2,0.6v1.8h-9.4l4.7,8.3L-34.9,9.4L-34.9,9.4z"/>
		<linearGradient id="SVGID_1_" gradientUnits="userSpaceOnUse" x1="-34.9209" y1="0" x2="34.9199" y2="0">
			<stop  offset="0" style="stop-color:#FFFFFF"/>
			<stop  offset="0.1685" style="stop-color:#0B0B0B"/>
			<stop  offset="0.2637" style="stop-color:#7F7F7F"/>
			<stop  offset="0.3956" style="stop-color:#8E8E8E"/>
			<stop  offset="0.5421" style="stop-color:#636363"/>
			<stop  offset="0.6264" style="stop-color:#5F5F5F"/>
			<stop  offset="0.7179" style="stop-color:#EAEAEA"/>
			<stop  offset="0.7912" style="stop-color:#FFFFFF"/>
			<stop  offset="1" style="stop-color:#000000"/>
		</linearGradient>
		<path fill="url(#SVGID_1_)" d="M-34.9,9.4h13c0.7,0,1.2-0.3,1.2-0.6V7.1h41.6v1.8c0,0.3,0.5,0.6,1.2,0.6h13l-4.7-8.3l4.7-8.3h-9.4
			v-1.8c0-0.3-0.5-0.6-1.2-0.6h-48.6c-0.7,0-1.2,0.3-1.2,0.6v1.8h-9.4l4.7,8.3L-34.9,9.4L-34.9,9.4z"/>
		<linearGradient id="SVGID_2_" gradientUnits="userSpaceOnUse" x1="-5.000005e-04" y1="-9.4365" x2="-4.999996e-04" y2="9.4365">
			<stop  offset="0" style="stop-color:#FFFFFF;stop-opacity:0"/>
			<stop  offset="1" style="stop-color:#FFFFFF"/>
		</linearGradient>
		<path opacity="0.69" fill="url(#SVGID_2_)" d="M-34.9,9.4h13c0.7,0,1.2-0.3,1.2-0.6V7.1h41.6v1.8c0,0.3,0.5,0.6,1.2,0.6h13
			l-4.7-8.3l4.7-8.3h-9.4v-1.8c0-0.3-0.5-0.6-1.2-0.6h-48.6c-0.7,0-1.2,0.3-1.2,0.6v1.8h-9.4l4.7,8.3L-34.9,9.4L-34.9,9.4z"/>
		<path fill="none" stroke="#231F20" stroke-width="0.908" d="M-34.9,9.4h13c0.7,0,1.2-0.3,1.2-0.6V7.1h41.6v1.8
			c0,0.3,0.5,0.6,1.2,0.6h13l-4.7-8.3l4.7-8.3h-9.4v-1.8c0-0.3-0.5-0.6-1.2-0.6h-48.6c-0.7,0-1.2,0.3-1.2,0.6v1.8h-9.4l4.7,8.3
			L-34.9,9.4L-34.9,9.4z"/>
	</g>
	<g>
		<path fill="#302C23" d="M-20.8,8.8c0-0.3-0.5-0.6-1.2-0.6h-2.4c-0.7,0-1.2-0.3-1.2-0.6s0.5-0.6,1.2-0.6h3.5V8.8L-20.8,8.8z"/>
		<linearGradient id="SVGID_3_" gradientUnits="userSpaceOnUse" x1="-25.4941" y1="7.9619" x2="-20.7822" y2="7.9619">
			<stop  offset="0" style="stop-color:#FFFFFF"/>
			<stop  offset="0.1685" style="stop-color:#0B0B0B"/>
			<stop  offset="0.2637" style="stop-color:#7F7F7F"/>
			<stop  offset="0.3956" style="stop-color:#8E8E8E"/>
			<stop  offset="0.5421" style="stop-color:#636363"/>
			<stop  offset="0.6264" style="stop-color:#5F5F5F"/>
			<stop  offset="0.7179" style="stop-color:#EAEAEA"/>
			<stop  offset="0.7912" style="stop-color:#FFFFFF"/>
			<stop  offset="1" style="stop-color:#000000"/>
		</linearGradient>
		<path fill="url(#SVGID_3_)" d="M-20.8,8.8c0-0.3-0.5-0.6-1.2-0.6h-2.4c-0.7,0-1.2-0.3-1.2-0.6s0.5-0.6,1.2-0.6h3.5V8.8L-20.8,8.8z
			"/>
		<linearGradient id="SVGID_4_" gradientUnits="userSpaceOnUse" x1="-23.1381" y1="7.0771" x2="-23.1381" y2="8.8467">
			<stop  offset="0" style="stop-color:#FFFFFF;stop-opacity:0"/>
			<stop  offset="1" style="stop-color:#FFFFFF"/>
		</linearGradient>
		<path opacity="0.69" fill="url(#SVGID_4_)" d="M-20.8,8.8c0-0.3-0.5-0.6-1.2-0.6h-2.4c-0.7,0-1.2-0.3-1.2-0.6s0.5-0.6,1.2-0.6h3.5
			V8.8L-20.8,8.8z"/>
		<path fill="none" stroke="#231F20" stroke-width="0.908" d="M-20.8,8.8c0-0.3-0.5-0.6-1.2-0.6h-2.4c-0.7,0-1.2-0.3-1.2-0.6
			s0.5-0.6,1.2-0.6h3.5V8.8L-20.8,8.8z"/>
	</g>
	<g>
		<path fill="#302C23" d="M20.8,8.8c0-0.3,0.5-0.6,1.2-0.6h2.4c0.6,0,1.2-0.3,1.2-0.6S25,7.1,24.3,7.1h-3.5V8.8L20.8,8.8z"/>
		<linearGradient id="SVGID_5_" gradientUnits="userSpaceOnUse" x1="20.7822" y1="7.9619" x2="25.4961" y2="7.9619">
			<stop  offset="0" style="stop-color:#FFFFFF"/>
			<stop  offset="0.1685" style="stop-color:#0B0B0B"/>
			<stop  offset="0.2637" style="stop-color:#7F7F7F"/>
			<stop  offset="0.3956" style="stop-color:#8E8E8E"/>
			<stop  offset="0.5421" style="stop-color:#636363"/>
			<stop  offset="0.6264" style="stop-color:#5F5F5F"/>
			<stop  offset="0.7179" style="stop-color:#EAEAEA"/>
			<stop  offset="0.7912" style="stop-color:#FFFFFF"/>
			<stop  offset="1" style="stop-color:#000000"/>
		</linearGradient>
		<path fill="url(#SVGID_5_)" d="M20.8,8.8c0-0.3,0.5-0.6,1.2-0.6h2.4c0.6,0,1.2-0.3,1.2-0.6S25,7.1,24.3,7.1h-3.5V8.8L20.8,8.8z"/>
		<linearGradient id="SVGID_6_" gradientUnits="userSpaceOnUse" x1="23.1392" y1="7.0771" x2="23.1392" y2="8.8467">
			<stop  offset="0" style="stop-color:#FFFFFF;stop-opacity:0"/>
			<stop  offset="1" style="stop-color:#FFFFFF"/>
		</linearGradient>
		<path opacity="0.69" fill="url(#SVGID_6_)" d="M20.8,8.8c0-0.3,0.5-0.6,1.2-0.6h2.4c0.6,0,1.2-0.3,1.2-0.6S25,7.1,24.3,7.1h-3.5
			V8.8L20.8,8.8z"/>
		<path fill="none" stroke="#231F20" stroke-width="0.908" d="M20.8,8.8c0-0.3,0.5-0.6,1.2-0.6h2.4c0.6,0,1.2-0.3,1.2-0.6
			S25,7.1,24.3,7.1h-3.5V8.8L20.8,8.8z"/>
	</g>
	<g>
		<path fill="#302C23" d="M-20.8,8.8c0-0.3-0.5-0.6-1.2-0.6h-2.4c-0.7,0-1.2-0.3-1.2-0.6s0.5-0.6,1.2-0.6h3.5"/>
		<linearGradient id="SVGID_7_" gradientUnits="userSpaceOnUse" x1="-25.4941" y1="7.9619" x2="-20.7822" y2="7.9619">
			<stop  offset="0" style="stop-color:#FFFFFF"/>
			<stop  offset="0.1685" style="stop-color:#0B0B0B"/>
			<stop  offset="0.2637" style="stop-color:#7F7F7F"/>
			<stop  offset="0.3956" style="stop-color:#8E8E8E"/>
			<stop  offset="0.5421" style="stop-color:#636363"/>
			<stop  offset="0.6264" style="stop-color:#5F5F5F"/>
			<stop  offset="0.7179" style="stop-color:#EAEAEA"/>
			<stop  offset="0.7912" style="stop-color:#FFFFFF"/>
			<stop  offset="1" style="stop-color:#000000"/>
		</linearGradient>
		<path fill="url(#SVGID_7_)" d="M-20.8,8.8c0-0.3-0.5-0.6-1.2-0.6h-2.4c-0.7,0-1.2-0.3-1.2-0.6s0.5-0.6,1.2-0.6h3.5"/>
		<linearGradient id="SVGID_8_" gradientUnits="userSpaceOnUse" x1="-23.1381" y1="7.0771" x2="-23.1381" y2="8.8467">
			<stop  offset="0" style="stop-color:#FFFFFF;stop-opacity:0"/>
			<stop  offset="1" style="stop-color:#FFFFFF"/>
		</linearGradient>
		<path opacity="0.69" fill="url(#SVGID_8_)" d="M-20.8,8.8c0-0.3-0.5-0.6-1.2-0.6h-2.4c-0.7,0-1.2-0.3-1.2-0.6s0.5-0.6,1.2-0.6h3.5
			"/>
		<path fill="none" stroke="#231F20" stroke-width="0.908" d="M-20.8,8.8c0-0.3-0.5-0.6-1.2-0.6h-2.4c-0.7,0-1.2-0.3-1.2-0.6
			s0.5-0.6,1.2-0.6h3.5"/>
	</g>
	<g>
		<path fill="#302C23" d="M20.8,8.8c0-0.3,0.5-0.6,1.2-0.6h2.4c0.6,0,1.2-0.3,1.2-0.6S25,7.1,24.3,7.1h-3.5"/>
		<linearGradient id="SVGID_9_" gradientUnits="userSpaceOnUse" x1="20.7822" y1="7.9619" x2="25.4961" y2="7.9619">
			<stop  offset="0" style="stop-color:#FFFFFF"/>
			<stop  offset="0.1685" style="stop-color:#0B0B0B"/>
			<stop  offset="0.2637" style="stop-color:#7F7F7F"/>
			<stop  offset="0.3956" style="stop-color:#8E8E8E"/>
			<stop  offset="0.5421" style="stop-color:#636363"/>
			<stop  offset="0.6264" style="stop-color:#5F5F5F"/>
			<stop  offset="0.7179" style="stop-color:#EAEAEA"/>
			<stop  offset="0.7912" style="stop-color:#FFFFFF"/>
			<stop  offset="1" style="stop-color:#000000"/>
		</linearGradient>
		<path fill="url(#SVGID_9_)" d="M20.8,8.8c0-0.3,0.5-0.6,1.2-0.6h2.4c0.6,0,1.2-0.3,1.2-0.6S25,7.1,24.3,7.1h-3.5"/>
		<linearGradient id="SVGID_10_" gradientUnits="userSpaceOnUse" x1="23.1392" y1="7.0771" x2="23.1392" y2="8.8467">
			<stop  offset="0" style="stop-color:#FFFFFF;stop-opacity:0"/>
			<stop  offset="1" style="stop-color:#FFFFFF"/>
		</linearGradient>
		<path opacity="0.69" fill="url(#SVGID_10_)" d="M20.8,8.8c0-0.3,0.5-0.6,1.2-0.6h2.4c0.6,0,1.2-0.3,1.2-0.6S25,7.1,24.3,7.1h-3.5"
			/>
		<path fill="none" stroke="#231F20" stroke-width="0.908" d="M20.8,8.8c0-0.3,0.5-0.6,1.2-0.6h2.4c0.6,0,1.2-0.3,1.2-0.6
			S25,7.1,24.3,7.1h-3.5"/>
	</g>
	<g>
		<line fill="#302C23" x1="-25.5" y1="7.7" x2="-25.5" y2="-7.1"/>
		<linearGradient id="SVGID_11_" gradientUnits="userSpaceOnUse" x1="-25.4941" y1="0.2949" x2="-25.4941" y2="0.2949">
			<stop  offset="0" style="stop-color:#FFFFFF"/>
			<stop  offset="0.1685" style="stop-color:#0B0B0B"/>
			<stop  offset="0.2637" style="stop-color:#7F7F7F"/>
			<stop  offset="0.3956" style="stop-color:#8E8E8E"/>
			<stop  offset="0.5421" style="stop-color:#636363"/>
			<stop  offset="0.6264" style="stop-color:#5F5F5F"/>
			<stop  offset="0.7179" style="stop-color:#EAEAEA"/>
			<stop  offset="0.7912" style="stop-color:#FFFFFF"/>
			<stop  offset="1" style="stop-color:#000000"/>
		</linearGradient>
		<line fill="url(#SVGID_11_)" x1="-25.5" y1="7.7" x2="-25.5" y2="-7.1"/>
		<linearGradient id="SVGID_12_" gradientUnits="userSpaceOnUse" x1="-25.4941" y1="-7.0771" x2="-25.4941" y2="7.667">
			<stop  offset="0" style="stop-color:#FFFFFF;stop-opacity:0"/>
			<stop  offset="1" style="stop-color:#FFFFFF"/>
		</linearGradient>
		<line opacity="0.69" fill="url(#SVGID_12_)" x1="-25.5" y1="7.7" x2="-25.5" y2="-7.1"/>
		<line fill="none" stroke="#231F20" stroke-width="0.908" x1="-25.5" y1="7.7" x2="-25.5" y2="-7.1"/>
	</g>
	<g>
		<line fill="#302C23" x1="25.5" y1="7.7" x2="25.5" y2="-7.1"/>
		<linearGradient id="SVGID_13_" gradientUnits="userSpaceOnUse" x1="25.4961" y1="0.2949" x2="25.4961" y2="0.2949">
			<stop  offset="0" style="stop-color:#FFFFFF"/>
			<stop  offset="0.1685" style="stop-color:#0B0B0B"/>
			<stop  offset="0.2637" style="stop-color:#7F7F7F"/>
			<stop  offset="0.3956" style="stop-color:#8E8E8E"/>
			<stop  offset="0.5421" style="stop-color:#636363"/>
			<stop  offset="0.6264" style="stop-color:#5F5F5F"/>
			<stop  offset="0.7179" style="stop-color:#EAEAEA"/>
			<stop  offset="0.7912" style="stop-color:#FFFFFF"/>
			<stop  offset="1" style="stop-color:#000000"/>
		</linearGradient>
		<line fill="url(#SVGID_13_)" x1="25.5" y1="7.7" x2="25.5" y2="-7.1"/>
		<linearGradient id="SVGID_14_" gradientUnits="userSpaceOnUse" x1="25.4961" y1="-7.0771" x2="25.4961" y2="7.667">
			<stop  offset="0" style="stop-color:#FFFFFF;stop-opacity:0"/>
			<stop  offset="1" style="stop-color:#FFFFFF"/>
		</linearGradient>
		<line opacity="0.69" fill="url(#SVGID_14_)" x1="25.5" y1="7.7" x2="25.5" y2="-7.1"/>
		<line fill="none" stroke="#231F20" stroke-width="0.908" x1="25.5" y1="7.7" x2="25.5" y2="-7.1"/>
	</g>
</symbol>
<g>
	
		<use xlink:href="#Ribbon_8"  width="71.4" height="19.8" x="-35.7" y="-9.9" transform="matrix(4.2053 0 0 -15.1228 150.1403 150.1311)" overflow="visible"/>
	<rect x="53.4" y="59.3" fill="none" width="196.4" height="214.3"/>
	<text transform="matrix(0.5546 0 0 1 98.5864 105.1133)"><tspan x="0" y="0" fill="#FF1D08" stroke="#FFEBE7" stroke-miterlimit="1" font-family="'Impact'" font-size="57.872">GENERIC</tspan><tspan x="-3.8" y="69.4" fill="#FF1D08" stroke="#FFEBE7" stroke-miterlimit="1" font-family="'Impact'" font-size="57.872">Training </tspan><tspan x="-41.7" y="138.9" fill="#FF1D08" stroke="#FFEBE7" stroke-miterlimit="1" font-family="'Impact'" font-size="57.872">(no testing)</tspan></text>
</g>
</svg>
