<?xml version="1.0" encoding="utf-8"?>
<!-- Generator: Adobe Illustrator 17.1.0, SVG Export Plug-In . SVG Version: 6.00 Build 0)  -->
<!DOCTYPE svg PUBLIC "-//W3C//DTD SVG 1.1//EN" "http://www.w3.org/Graphics/SVG/1.1/DTD/svg11.dtd">
<svg version="1.1" id="Layer_1" xmlns="http://www.w3.org/2000/svg" xmlns:xlink="http://www.w3.org/1999/xlink" x="0px" y="0px"
	 viewBox="0 0 400 200" enable-background="new 0 0 400 200" xml:space="preserve">
<symbol  id="Regal_Vector_Pack_10" viewBox="-65.4 -70.7 130.9 141.3">
	<path d="M45.7,4.8c0,0,2.5-2.2,5.5-5.9c6.9-8.2,16.5-23.4,2.9-36.1c0.8,0.8,13.8,14.2-5.1,34.4C31.2,18,29.9,46,58.9,30.2
		c0,0-7,8.2-20,6.5c0,0,10.7,5.4,25.6-5.7c0,0-15.5,12.9-15.5,34.4c0,0-17.1-18.7-41.8,2.2c0,0,6.8-11.5,21.8-12.6
		c0,0-16.7-2-29.7,15.7v0c0,0,0,0,0,0s0,0,0,0v0C-13.4,53-30.1,55-30.1,55c15,1.1,21.7,12.6,21.7,12.6c-24.3-20.8-41.7-2.2-41.7-2.2
		C-49.9,43.9-65.3,31-65.3,31c14.8,11.1,25.6,5.7,25.6,5.7c-13,1.8-19.9-6.5-19.9-6.5C-30.8,46-31.7,18-49.4-2.8
		c-18.6-20.2-5.5-33.6-4.6-34.4c-13.7,12.7-4.3,27.9,2.5,36.1c2.9,3.6,5.4,5.9,5.4,5.9c-33.1-26.9-19.3-48.1,8.5-56.7
		c22.2-6.6,33.7-15.2,37.9-18.8v0c0,0,0,0,0,0s0,0,0,0v0c4.1,3.6,15.6,12.1,37.6,18.8C65.6-43.3,79.2-22.1,45.7,4.8z M-0.7,63.2
		L-0.7,63.2C-0.7,63.3-0.7,63.3-0.7,63.2C-0.6,63.3-0.6,63.3-0.7,63.2L-0.7,63.2c8.8-12.1,27.6-12.7,27.6-12.7
		c-16-2.3-26.9,9-27.6,9.7c-0.7-0.7-11.6-12.1-27.6-9.7C-28.2,50.5-9.4,51.2-0.7,63.2z M27.6-50.7c-16-4.8-24.3-11-27.4-13.6v0
		c0,0,0,0,0,0l0,0v0c-3.1,2.6-11.4,8.8-27.5,13.6c-8,2.5-14.4,6.4-17.7,11.4c0.6-0.4,1.2-0.9,1.9-1.3c3.7-2.8,8.5-5,14.1-6.6
		c17.1-4.8,26-11,29.3-13.6v0l0,0c0,0,0,0,0,0v0c3.2,2.6,12,8.8,29.1,13.6c5.5,1.6,10.3,3.8,13.9,6.5c0.7,0.4,1.3,0.8,1.9,1.2
		C41.8-44.4,35.5-48.3,27.6-50.7z"/>
</symbol>
<g>
	
		<use xlink:href="#Regal_Vector_Pack_10"  width="130.9" height="141.3" id="fitness_logo" x="-65.4" y="-70.7" transform="matrix(3.0396 0 0 -1.3395 200.7087 96.9685)" overflow="visible"/>
	<rect x="78.3" y="78.4" fill="none" width="236.3" height="122.3"/>
	<text transform="matrix(1.0307 0 0 1 90.2085 99.2319)"><tspan x="0" y="0" fill="#FFFFFF" stroke="#FF0000" stroke-width="0.5" stroke-miterlimit="10" font-family="'Muscle-Wide'" font-size="34.7526">BOOTHBY</tspan><tspan x="-10.3" y="28.8" fill="#FFFFFF" stroke="#FF0000" stroke-width="0.5" stroke-miterlimit="10" font-family="'Muscle-Wide'" font-size="24">PERFORMANCE</tspan></text>
</g>
</svg>
