<?xml version="1.0" encoding="utf-8"?>
<!-- Generator: Adobe Illustrator 17.1.0, SVG Export Plug-In . SVG Version: 6.00 Build 0)  -->
<!DOCTYPE svg PUBLIC "-//W3C//DTD SVG 1.1//EN" "http://www.w3.org/Graphics/SVG/1.1/DTD/svg11.dtd">
<svg version="1.1" id="Layer_3" xmlns="http://www.w3.org/2000/svg" xmlns:xlink="http://www.w3.org/1999/xlink" x="0px" y="0px"
	 viewBox="0 0 960 560" enable-background="new 0 0 960 560" xml:space="preserve">
<rect y="-4" fill="#8C2814" width="960" height="565"/>
<g id="Layer_2">
	<g id="Layer_1">
		<g id="Gears">
			<g>
				<g>
					<linearGradient id="SVGID_1_" gradientUnits="userSpaceOnUse" x1="74.0274" y1="277.7472" x2="74.0274" y2="214.3008">
						<stop  offset="0" style="stop-color:#E1E8EC"/>
						<stop  offset="0.5131" style="stop-color:#FFFFFF"/>
					</linearGradient>
					<path fill="url(#SVGID_1_)" d="M132.9,238.4l-4-0.9c0.3-1.3,0.5-2.7,0.7-4l4.2,0c2.1,0,3.8-1.4,3.8-3V229c0-1.7-1.7-3-3.8-3
						l-4.2,0c-0.1-1.3-0.4-2.7-0.7-4l4-0.9c2-0.4,3.2-2.1,2.7-3.7l-0.5-1.5c-0.5-1.6-2.6-2.6-4.7-2.2l-4,0.9
						c-0.6-1.3-1.2-2.5-1.9-3.7l3.6-1.7c1.8-0.8,2.5-2.7,1.4-4.2l-1-1.3c-1.1-1.5-3.4-2-5.2-1.1l-3.6,1.7c-1-1.1-2-2.2-3-3.2
						l2.9-2.3c1.5-1.2,1.5-3.1,0-4.3l-1.3-1.1c-1.5-1.2-3.9-1.2-5.4,0l-2.9,2.3c-1.3-0.9-2.6-1.7-4-2.4l2.1-2.9
						c1.1-1.5,0.4-3.3-1.4-4.2l-1.7-0.8c-1.8-0.8-4.2-0.3-5.2,1.1l-2.1,2.9c-1.5-0.6-3.1-1.1-4.6-1.5l1.1-3.2
						c0.5-1.6-0.7-3.3-2.7-3.7l-1.8-0.4c-2-0.4-4.1,0.5-4.7,2.2l-1.1,3.2c-1.7-0.2-3.3-0.4-5-0.5l0-3.3c0-1.7-1.7-3-3.8-3l-1.9,0
						c-2.1,0-3.8,1.4-3.8,3l0,3.3c-1.7,0.1-3.3,0.3-5,0.5l-1.1-3.2c-0.5-1.6-2.6-2.6-4.7-2.2l-1.8,0.4c-2,0.4-3.2,2.1-2.7,3.7
						l1.1,3.2c-1.6,0.5-3.1,1-4.6,1.5l-2.1-2.9c-1.1-1.5-3.4-2-5.2-1.1l-1.7,0.8c-1.8,0.8-2.5,2.7-1.4,4.2l2.1,2.9
						c-1.4,0.8-2.7,1.6-4,2.4l-2.9-2.4c-1.5-1.2-3.9-1.2-5.4,0l-1.4,1.1c-1.5,1.2-1.5,3.1,0,4.3l2.9,2.3c-1.1,1-2.1,2.1-3.1,3.2
						l-3.6-1.7c-1.8-0.8-4.2-0.3-5.2,1.1l-1,1.3c-1.1,1.5-0.4,3.3,1.4,4.2l3.6,1.7c-0.7,1.2-1.3,2.4-1.9,3.7l-4-0.9
						c-2-0.4-4.1,0.5-4.7,2.1l-0.5,1.5c-0.5,1.6,0.7,3.3,2.7,3.7l4,0.9c-0.3,1.3-0.5,2.7-0.7,4l-4.2,0c-2.1,0-3.8,1.4-3.8,3v1.5
						c0,1.7,1.7,3,3.8,3l4.2,0c0.1,1.3,0.4,2.7,0.7,4l-4,0.9c-2,0.4-3.2,2.1-2.7,3.7l0.5,1.5c0.5,1.6,2.6,2.6,4.7,2.2l4-0.9
						c0.6,1.3,1.2,2.5,1.9,3.7l-3.6,1.7c-1.8,0.8-2.5,2.7-1.4,4.2l1,1.3c1.1,1.5,3.4,2,5.2,1.1l3.6-1.7c1,1.1,2,2.2,3,3.2l-2.9,2.3
						c-1.5,1.2-1.5,3.1,0,4.3l1.3,1.1c1.5,1.2,3.9,1.2,5.4,0l2.9-2.3c1.3,0.9,2.6,1.7,4,2.4L40,269c-1.1,1.5-0.4,3.3,1.4,4.2
						l1.7,0.8c1.8,0.8,4.2,0.3,5.2-1.1l2.1-2.9c1.5,0.6,3.1,1.1,4.6,1.5l-1.1,3.2c-0.6,1.6,0.7,3.3,2.7,3.7l1.8,0.4
						c2,0.4,4.1-0.5,4.7-2.1l1.1-3.2c1.7,0.2,3.3,0.4,5,0.5l0,3.3c0,1.7,1.7,3.1,3.8,3.1l1.9,0c2.1,0,3.8-1.4,3.8-3l0-3.3
						c1.7-0.1,3.3-0.3,5-0.5l1.1,3.2c0.5,1.6,2.6,2.6,4.7,2.2l1.8-0.4c2-0.4,3.2-2.1,2.7-3.7l-1.1-3.2c1.6-0.5,3.1-1,4.6-1.5
						l2.1,2.9c1.1,1.5,3.4,2,5.2,1.1l1.7-0.8c1.8-0.8,2.5-2.7,1.4-4.2l-2.1-2.9c1.4-0.8,2.7-1.6,4-2.4l2.9,2.4
						c1.5,1.2,3.9,1.2,5.4,0l1.4-1.1c1.5-1.2,1.5-3.1,0-4.3l-2.9-2.3c1.1-1,2.1-2.1,3.1-3.2l3.6,1.7c1.8,0.8,4.2,0.3,5.2-1.1l1-1.3
						c1.1-1.5,0.4-3.3-1.4-4.2l-3.6-1.7c0.7-1.2,1.3-2.4,1.9-3.7l4,0.9c2,0.4,4.1-0.5,4.7-2.1l0.5-1.5
						C136.1,240.5,134.9,238.8,132.9,238.4z"/>
					
						<radialGradient id="SVGID_2_" cx="337.2124" cy="470.6071" r="26.2035" fx="337.9228" fy="477.5392" gradientTransform="matrix(2.3538 0 0 1.8781 -720.1544 -644.2542)" gradientUnits="userSpaceOnUse">
						<stop  offset="0.4869" style="stop-color:#FFFFFF"/>
						<stop  offset="1" style="stop-color:#E1E8EC"/>
					</radialGradient>
					<ellipse fill="url(#SVGID_2_)" cx="74" cy="229.6" rx="46.7" ry="37.2"/>
					<ellipse fill="none" cx="74" cy="229.6" rx="45.2" ry="36.1"/>
					<ellipse fill="none" cx="74" cy="246.6" rx="44.2" ry="35.2"/>
					<text transform="matrix(1.2485 0 0 1 40.2569 229.2382)"><tspan x="0" y="0" font-family="'MyriadPro-Regular'" font-size="8.3105">Advanced Care</tspan><tspan x="-5.9" y="10" font-family="'MyriadPro-Regular'" font-size="8.3105">       If Necessary</tspan></text>
				</g>
			</g>
			<g>
				<g>
					<linearGradient id="SVGID_3_" gradientUnits="userSpaceOnUse" x1="498.5454" y1="126.0029" x2="498.5454" y2="58.1562">
						<stop  offset="0" style="stop-color:#E1E8EC"/>
						<stop  offset="0.5131" style="stop-color:#FFFFFF"/>
					</linearGradient>
					<path fill="url(#SVGID_3_)" d="M557.5,83.9l-4-0.9c0.3-1.4,0.5-2.8,0.7-4.2l4.2,0c2.1,0,3.8-1.5,3.8-3.3v-1.6
						c0-1.8-1.7-3.3-3.8-3.3l-4.2,0c-0.1-1.4-0.4-2.8-0.7-4.2l4-0.9c2-0.5,3.3-2.3,2.7-4l-0.5-1.6c-0.5-1.7-2.6-2.8-4.7-2.3l-4,0.9
						c-0.6-1.3-1.2-2.7-1.9-4l3.6-1.8c1.8-0.9,2.5-2.9,1.4-4.5l-1-1.4c-1.1-1.6-3.4-2.1-5.2-1.2l-3.6,1.8c-1-1.2-2-2.3-3.1-3.4
						l3-2.5c1.5-1.3,1.5-3.3,0-4.6l-1.4-1.2c-1.5-1.3-3.9-1.3-5.4,0l-2.9,2.5c-1.3-0.9-2.6-1.8-4-2.6l2.1-3.1
						c1.1-1.6,0.4-3.6-1.4-4.5l-1.7-0.8c-1.8-0.9-4.2-0.4-5.2,1.2l-2.1,3.1c-1.5-0.6-3.1-1.1-4.6-1.6l1.1-3.4c0.6-1.7-0.7-3.5-2.7-4
						l-1.8-0.4c-2-0.5-4.1,0.6-4.7,2.3l-1.1,3.4c-1.7-0.3-3.3-0.4-5-0.6l0-3.5c0-1.8-1.7-3.3-3.8-3.3l-1.9,0c-2.1,0-3.8,1.5-3.8,3.3
						l0,3.5c-1.7,0.1-3.3,0.3-5,0.6l-1.1-3.4c-0.5-1.7-2.6-2.8-4.7-2.3l-1.8,0.4c-2,0.5-3.3,2.2-2.7,4l1.1,3.4
						c-1.6,0.5-3.1,1-4.6,1.6l-2.1-3.1c-1.1-1.6-3.4-2.1-5.2-1.2l-1.7,0.8c-1.8,0.9-2.5,2.9-1.4,4.4l2.1,3.1c-1.4,0.8-2.7,1.7-4,2.6
						l-2.9-2.5c-1.5-1.3-3.9-1.3-5.4,0l-1.4,1.2c-1.5,1.3-1.5,3.3,0,4.6l2.9,2.5c-1.1,1.1-2.1,2.2-3.1,3.4l-3.6-1.8
						c-1.8-0.9-4.2-0.4-5.2,1.2l-1,1.4c-1.1,1.6-0.4,3.6,1.4,4.5l3.6,1.8c-0.7,1.3-1.3,2.6-1.9,4l-4-0.9c-2-0.5-4.1,0.6-4.7,2.3
						l-0.5,1.6c-0.5,1.7,0.7,3.5,2.7,4l4,0.9c-0.3,1.4-0.5,2.8-0.7,4.2l-4.2,0c-2.1,0-3.8,1.5-3.8,3.3v1.6c0,1.8,1.7,3.3,3.8,3.3
						l4.2,0c0.1,1.4,0.4,2.8,0.7,4.2l-4,0.9c-2,0.5-3.3,2.3-2.7,4l0.5,1.6c0.5,1.7,2.6,2.8,4.7,2.3l4-0.9c0.6,1.3,1.2,2.7,1.9,4
						l-3.6,1.8c-1.8,0.9-2.5,2.9-1.4,4.4l1,1.4c1.1,1.6,3.4,2.1,5.2,1.2l3.6-1.8c1,1.2,2,2.3,3.1,3.4l-3,2.5c-1.5,1.3-1.5,3.3,0,4.6
						l1.3,1.2c1.5,1.3,3.9,1.3,5.4,0l2.9-2.5c1.3,0.9,2.6,1.8,4,2.6l-2.1,3.1c-1.1,1.6-0.4,3.5,1.4,4.5l1.7,0.8
						c1.8,0.9,4.2,0.4,5.2-1.2l2.1-3.1c1.5,0.6,3.1,1.1,4.6,1.6l-1.1,3.4c-0.6,1.7,0.7,3.5,2.7,4l1.8,0.4c2,0.5,4.1-0.6,4.7-2.3
						l1.1-3.4c1.7,0.3,3.3,0.4,5,0.6l0,3.5c0,1.8,1.7,3.3,3.8,3.3l1.9,0c2.1,0,3.8-1.5,3.8-3.3l0-3.5c1.7-0.1,3.3-0.3,5-0.6l1.1,3.4
						c0.5,1.7,2.6,2.8,4.7,2.3l1.8-0.4c2-0.5,3.3-2.3,2.7-4l-1.1-3.4c1.6-0.5,3.1-1,4.6-1.6l2.1,3.1c1.1,1.6,3.4,2.1,5.2,1.2
						l1.7-0.8c1.8-0.9,2.5-2.9,1.4-4.4l-2.1-3.1c1.4-0.8,2.7-1.7,4-2.6l2.9,2.5c1.5,1.3,3.9,1.3,5.4,0l1.4-1.2
						c1.5-1.3,1.5-3.3,0-4.6l-2.9-2.5c1.1-1.1,2.1-2.2,3.1-3.4l3.6,1.8c1.8,0.9,4.2,0.4,5.2-1.2l1-1.4c1.1-1.6,0.4-3.6-1.4-4.5
						l-3.6-1.8c0.7-1.3,1.3-2.6,1.9-4l4,0.9c2,0.5,4.1-0.6,4.7-2.3l0.5-1.6C560.7,86.1,559.5,84.4,557.5,83.9z"/>
					
						<radialGradient id="SVGID_4_" cx="686.3464" cy="306.5365" r="41.4384" fx="687.4698" fy="317.4989" gradientTransform="matrix(1.4902 0 0 1.27 -524.6586 -304.1039)" gradientUnits="userSpaceOnUse">
						<stop  offset="0.4869" style="stop-color:#FFFFFF"/>
						<stop  offset="1" style="stop-color:#E1E8EC"/>
					</radialGradient>
					<ellipse fill="url(#SVGID_4_)" cx="498.5" cy="74.5" rx="46.7" ry="39.8"/>
					<ellipse fill="none" cx="498.5" cy="74.5" rx="44.2" ry="37.7"/>
				</g>
			</g>
			<g>
				<g>
					<linearGradient id="SVGID_5_" gradientUnits="userSpaceOnUse" x1="466.6796" y1="336.3625" x2="466.6796" y2="249.2473">
						<stop  offset="0" style="stop-color:#E1E8EC"/>
						<stop  offset="0.5131" style="stop-color:#FFFFFF"/>
					</linearGradient>
					<path fill="url(#SVGID_5_)" d="M558.1,282.3l-6.2-1.2c0.5-1.8,0.8-3.6,1-5.5l6.5,0c3.3,0,5.9-1.9,5.9-4.2l0-2.1
						c0-2.3-2.6-4.2-5.9-4.2l-6.5,0c-0.2-1.8-0.6-3.7-1-5.5l6.2-1.2c3.2-0.6,5-2.9,4.2-5.1l-0.8-2c-0.8-2.2-4.1-3.6-7.3-3l-6.2,1.2
						c-0.9-1.7-1.9-3.4-3-5.1l5.6-2.3c2.8-1.2,3.8-3.7,2.2-5.7l-1.5-1.8c-1.6-2-5.3-2.7-8.1-1.5l-5.6,2.3c-1.5-1.5-3.1-3-4.7-4.4
						l4.6-3.2c2.3-1.6,2.3-4.3,0-5.9l-2.1-1.5c-2.3-1.6-6.1-1.6-8.4,0l-4.6,3.2c-2-1.2-4-2.3-6.2-3.4l3.2-3.9c1.6-2,0.7-4.6-2.2-5.7
						l-2.6-1c-2.8-1.2-6.5-0.5-8.1,1.5l-3.2,3.9c-2.3-0.8-4.7-1.5-7.2-2.1l1.7-4.4c0.9-2.2-1-4.5-4.2-5.1l-2.9-0.5
						c-3.2-0.6-6.4,0.7-7.3,3l-1.7,4.4c-2.6-0.3-5.2-0.6-7.7-0.7l0-4.6c0-2.3-2.7-4.2-5.9-4.2l-3,0c-3.3,0-5.9,1.9-5.9,4.2l0,4.5
						c-2.6,0.2-5.2,0.4-7.7,0.7l-1.7-4.4c-0.8-2.2-4.1-3.6-7.3-3l-2.9,0.5c-3.2,0.6-5,2.9-4.2,5.1l1.7,4.4c-2.4,0.6-4.8,1.3-7.2,2.1
						l-3.2-4c-1.6-2-5.3-2.7-8.1-1.5l-2.6,1c-2.8,1.2-3.8,3.7-2.2,5.7l3.2,4c-2.1,1-4.2,2.2-6.2,3.3l-4.6-3.2
						c-2.3-1.6-6.1-1.6-8.4,0l-2.1,1.5c-2.3,1.6-2.3,4.3,0,5.9l4.6,3.2c-1.7,1.4-3.3,2.8-4.8,4.4l-5.6-2.3c-2.8-1.2-6.5-0.5-8.1,1.5
						l-1.5,1.8c-1.6,2-0.7,4.6,2.2,5.7l5.6,2.3c-1.1,1.6-2.1,3.3-3,5.1l-6.2-1.2c-3.2-0.6-6.4,0.7-7.3,3l-0.8,2
						c-0.9,2.2,1,4.5,4.2,5.1l6.2,1.2c-0.5,1.8-0.8,3.6-1,5.5l-6.5,0c-3.3,0-5.9,1.9-5.9,4.2v2.1c0,2.3,2.6,4.2,5.9,4.2l6.4,0
						c0.2,1.8,0.6,3.7,1,5.5l-6.2,1.2c-3.2,0.6-5,2.9-4.2,5.1l0.8,2c0.8,2.2,4.1,3.6,7.3,3l6.2-1.2c0.9,1.7,1.9,3.4,3,5.1l-5.6,2.3
						c-2.8,1.2-3.8,3.7-2.2,5.7l1.5,1.8c1.6,2,5.3,2.7,8.1,1.5l5.6-2.3c1.5,1.5,3.1,3,4.7,4.4l-4.6,3.2c-2.3,1.6-2.3,4.3,0,5.9
						l2.1,1.5c2.3,1.6,6.1,1.6,8.4,0l4.6-3.2c2,1.2,4,2.3,6.2,3.4l-3.2,3.9c-1.6,2-0.7,4.6,2.2,5.7l2.6,1c2.8,1.2,6.5,0.5,8.1-1.5
						l3.2-3.9c2.3,0.8,4.7,1.5,7.2,2.1l-1.7,4.4c-0.9,2.2,1,4.5,4.2,5.1l2.9,0.5c3.2,0.6,6.4-0.7,7.3-3l1.7-4.4
						c2.6,0.3,5.2,0.6,7.7,0.7l0,4.6c0,2.3,2.7,4.2,5.9,4.2l3,0c3.3,0,5.9-1.9,5.9-4.2l0-4.5c2.6-0.2,5.2-0.4,7.7-0.7l1.7,4.4
						c0.8,2.2,4.1,3.6,7.3,3l2.9-0.5c3.2-0.6,5-2.9,4.2-5.1l-1.7-4.4c2.4-0.6,4.8-1.3,7.2-2.1l3.2,4c1.6,2,5.3,2.7,8.1,1.5l2.6-1
						c2.8-1.2,3.8-3.7,2.2-5.7l-3.2-4c2.1-1,4.2-2.2,6.2-3.3l4.6,3.2c2.3,1.6,6.1,1.6,8.4,0l2.1-1.5c2.3-1.6,2.3-4.3,0-5.9l-4.6-3.2
						c1.7-1.4,3.3-2.8,4.8-4.4l5.6,2.3c2.8,1.2,6.5,0.5,8.1-1.5l1.5-1.8c1.6-2,0.7-4.6-2.2-5.7l-5.6-2.3c1.1-1.6,2.1-3.3,3-5.1
						l6.2,1.2c3.2,0.6,6.4-0.7,7.3-3l0.8-2C563.1,285.2,561.2,282.9,558.1,282.3z"/>
					
						<radialGradient id="SVGID_6_" cx="709.2054" cy="488.7426" r="41.4386" fx="710.3289" fy="499.7051" gradientTransform="matrix(2.3119 0 0 1.6306 -1173.6143 -513.002)" gradientUnits="userSpaceOnUse">
						<stop  offset="0.4869" style="stop-color:#FFFFFF"/>
						<stop  offset="1" style="stop-color:#E1E8EC"/>
					</radialGradient>
					<ellipse fill="url(#SVGID_6_)" cx="466.7" cy="270.2" rx="72.5" ry="51.1"/>
					<linearGradient id="SVGID_7_" gradientUnits="userSpaceOnUse" x1="466.6796" y1="349.7404" x2="466.6796" y2="225.9101">
						<stop  offset="0" style="stop-color:#E1E8EC"/>
						<stop  offset="0.5131" style="stop-color:#FFFFFF"/>
					</linearGradient>
					<ellipse fill="url(#SVGID_7_)" cx="466.7" cy="270.2" rx="70.3" ry="49.6"/>
					
						<radialGradient id="SVGID_8_" cx="709.2215" cy="488.2921" r="47.1782" fx="710.5005" fy="500.773" gradientTransform="matrix(2.3119 0 0 1.6306 -1173.6143 -513.002)" gradientUnits="userSpaceOnUse">
						<stop  offset="0.4869" style="stop-color:#FFFFFF"/>
						<stop  offset="1" style="stop-color:#E1E8EC"/>
					</radialGradient>
					<ellipse fill="url(#SVGID_8_)" cx="466.7" cy="270.2" rx="68.6" ry="48.4"/>
				</g>
			</g>
			<g>
				<g>
					
						<linearGradient id="SVGID_9_" gradientUnits="userSpaceOnUse" x1="47.504" y1="136.0565" x2="47.504" y2="90.5419" gradientTransform="matrix(0.9162 0.4008 -0.4008 0.9162 62.3572 -77.4663)">
						<stop  offset="0" style="stop-color:#E1E8EC"/>
						<stop  offset="0.5131" style="stop-color:#FFFFFF"/>
					</linearGradient>
					<path fill="url(#SVGID_9_)" d="M106,51.8l-2.7-1.3c0.8-0.7,1.5-1.4,2.1-2.2l3.1,0.9c1.6,0.4,3.4,0,4.1-1l0.6-0.9
						c0.7-1,0-2.1-1.6-2.6l-3.1-0.9c0.4-0.8,0.8-1.6,1.2-2.5l3.4,0.3c1.7,0.2,3.3-0.6,3.6-1.6l0.2-1c0.3-1.1-0.9-2.1-2.6-2.2
						l-3.4-0.3c0.1-0.9,0.1-1.7,0.1-2.6l3.4-0.2c1.7-0.1,3-1.1,2.8-2.2l-0.2-1c-0.2-1.1-1.7-1.8-3.5-1.7l-3.4,0.2
						c-0.3-0.8-0.6-1.7-1-2.5l3.2-0.8c1.6-0.4,2.4-1.5,1.8-2.5l-0.6-0.9c-0.6-1-2.5-1.5-4.1-1.1l-3.2,0.8c-0.6-0.8-1.3-1.5-2-2.3
						l2.8-1.3c1.4-0.6,1.7-1.9,0.7-2.7l-0.9-0.8c-1-0.9-3-1.1-4.4-0.4l-2.8,1.3c-0.9-0.6-1.9-1.3-2.9-1.8l2.1-1.7
						c1.1-0.8,0.9-2.1-0.5-2.7L97.2,9c-1.4-0.7-3.3-0.5-4.4,0.3L90.6,11c-1.2-0.5-2.3-0.9-3.5-1.3l1.4-1.9c0.7-1,0-2.1-1.6-2.6
						l-1.4-0.4c-1.6-0.4-3.4,0-4.1,1l-1.4,1.9c-1.3-0.3-2.6-0.5-4-0.7l0.5-2.1c0.3-1.1-0.9-2.1-2.6-2.2l-1.6-0.1
						c-1.7-0.2-3.3,0.6-3.6,1.6l-0.5,2.1c-1.4-0.1-2.8-0.1-4.1-0.1l-0.4-2.1c-0.2-1.1-1.7-1.8-3.5-1.7l-1.6,0.1
						c-1.7,0.1-3,1.1-2.8,2.2l0.4,2.1c-1.4,0.2-2.7,0.4-4,0.6l-1.2-2c-0.6-1-2.5-1.5-4.1-1.1l-1.5,0.4C43.8,5,43,6.1,43.7,7.1l1.2,2
						c-1.2,0.4-2.4,0.8-3.6,1.2l-2-1.7c-1-0.9-3-1.1-4.4-0.4l-1.3,0.6c-1.4,0.6-1.7,1.9-0.7,2.7l2,1.7c-1,0.6-2,1.2-3,1.8l-2.7-1.3
						C27.9,13,26,13.1,24.9,14l-1,0.8c-1.1,0.8-0.9,2.1,0.5,2.7l2.7,1.3c-0.8,0.7-1.5,1.4-2.1,2.2l-3.1-0.9c-1.6-0.4-3.4,0-4.1,1
						L17,22c-0.7,1,0,2.1,1.6,2.6l3.1,0.9c-0.4,0.8-0.8,1.6-1.2,2.5l-3.4-0.3c-1.7-0.2-3.3,0.6-3.6,1.6l-0.2,1
						c-0.3,1.1,0.9,2.1,2.6,2.2l3.4,0.3c-0.1,0.9-0.1,1.7-0.1,2.6l-3.4,0.2c-1.7,0.1-3,1.1-2.8,2.2l0.2,1c0.2,1.1,1.7,1.8,3.5,1.7
						l3.4-0.2c0.3,0.8,0.6,1.7,1,2.5L18,43.4c-1.6,0.4-2.4,1.5-1.8,2.5l0.6,0.9c0.6,1,2.5,1.5,4.1,1.1l3.2-0.8
						c0.6,0.8,1.3,1.5,2,2.3l-2.8,1.3c-1.4,0.6-1.7,1.9-0.7,2.7l0.9,0.8c1,0.9,3,1.1,4.4,0.4l2.8-1.3c0.9,0.6,1.9,1.3,2.9,1.8
						l-2.1,1.7c-1.1,0.8-0.9,2.1,0.5,2.7l1.2,0.6c1.4,0.7,3.3,0.5,4.4-0.3l2.1-1.7c1.2,0.5,2.3,0.9,3.5,1.3l-1.4,1.9
						c-0.7,1,0,2.1,1.6,2.6l1.4,0.4c1.6,0.4,3.4,0,4.1-1l1.4-1.9c1.3,0.3,2.6,0.5,4,0.7l-0.5,2.1c-0.3,1.1,0.9,2.1,2.6,2.2l1.6,0.1
						c1.7,0.2,3.3-0.6,3.6-1.6l0.5-2.1c1.4,0.1,2.8,0.1,4.1,0.1l0.4,2.1c0.2,1.1,1.7,1.8,3.5,1.7l1.6-0.1c1.7-0.1,3-1.1,2.8-2.2
						l-0.4-2.1c1.4-0.2,2.7-0.4,4-0.6l1.2,2c0.6,1,2.5,1.5,4.1,1.1l1.5-0.4c1.6-0.4,2.4-1.5,1.8-2.5l-1.2-2c1.2-0.4,2.4-0.8,3.6-1.2
						l2,1.7c1,0.9,3,1.1,4.4,0.4l1.3-0.6c1.4-0.6,1.7-1.9,0.7-2.7l-2-1.7c1-0.6,2-1.2,3-1.8l2.7,1.3c1.4,0.7,3.3,0.5,4.4-0.3l1-0.8
						C107.5,53.7,107.3,52.5,106,51.8z"/>
					
						<radialGradient id="SVGID_10_" cx="447.2507" cy="175.7673" r="26.2038" fx="447.9611" fy="182.6995" gradientTransform="matrix(1.7753 0.4822 -0.7767 1.1023 -596.733 -369.078)" gradientUnits="userSpaceOnUse">
						<stop  offset="0.4869" style="stop-color:#FFFFFF"/>
						<stop  offset="1" style="stop-color:#E1E8EC"/>
					</radialGradient>
					<path fill="url(#SVGID_10_)" d="M100.4,44.1c-8.5,12.1-31.2,17.6-50.6,12.3C30.4,51.1,21.5,37.1,30,25
						c8.5-12.1,31.2-17.6,50.6-12.3C100.1,18,108.9,32,100.4,44.1z"/>
					
						<linearGradient id="SVGID_11_" gradientUnits="userSpaceOnUse" x1="47.5222" y1="143.0908" x2="47.5222" y2="78.3278" gradientTransform="matrix(0.9162 0.4008 -0.4008 0.9162 62.3572 -77.4663)">
						<stop  offset="0" style="stop-color:#E1E8EC"/>
						<stop  offset="0.5131" style="stop-color:#FFFFFF"/>
					</linearGradient>
					<path fill="url(#SVGID_11_)" d="M99.3,43.8c-8.2,11.7-30.2,17-49,11.9C31.4,50.6,22.9,37,31.1,25.3s30.2-17,49-11.9
						C99,18.5,107.6,32.1,99.3,43.8z"/>
					<path fill="none" d="M50.3,26h32.6c1.4,0,2.6,0.7,2.6,1.6v16.1c0,0.9-1.2,1.6-2.6,1.6H50.3c-1.4,0-2.6-0.7-2.6-1.6V27.6
						C47.7,26.7,48.9,26,50.3,26z"/>
					<text transform="matrix(1.6106 0 0 1 47.7205 33.0143)"><tspan x="0" y="0" font-family="'MyriadPro-Regular'" font-size="8.422">START  </tspan><tspan x="0" y="10.1" font-family="'MyriadPro-Regular'" font-size="8.422">HERE</tspan></text>
				</g>
			</g>
			<text transform="matrix(1.1209 0 0 1 396.2266 490.5604)"><tspan x="0" y="0" fill="#65C8D0" font-family="'RobotoSlab-Thin'" font-size="51.1437" letter-spacing="-1.8">Boothby</tspan><tspan x="29.4" y="40.8" fill="#8CC63F" font-family="'RobotoSlab-Thin'" font-size="52.2595" letter-spacing="-1.8">CARE</tspan><tspan x="64" y="54.8" fill="#FFFFFF" font-family="'RobotoSlab-Thin'" font-size="14.6911">Model</tspan></text>
			<g>
				<g>
					<linearGradient id="SVGID_12_" gradientUnits="userSpaceOnUse" x1="740.5358" y1="515.028" x2="740.5358" y2="347.6086">
						<stop  offset="0" style="stop-color:#E1E8EC"/>
						<stop  offset="0.5131" style="stop-color:#FFFFFF"/>
					</linearGradient>
					<path fill="url(#SVGID_12_)" d="M923.9,411.1l-12.5-2.3c0.9-3.5,1.6-7,2.1-10.5l13,0c6.6,0,11.9-3.6,11.9-8l0-4
						c0-4.4-5.3-8-11.9-8l-12.9,0c-0.4-3.5-1.1-7-2-10.5l12.5-2.3c6.3-1.1,10.1-5.6,8.4-9.8l-1.5-3.9c-1.7-4.3-8.2-6.8-14.6-5.7
						l-12.5,2.3c-1.8-3.3-3.8-6.6-6-9.8l11.3-4.4c5.7-2.2,7.7-7.1,4.4-11l-3-3.5c-3.3-3.8-10.6-5.2-16.2-3l-11.3,4.4
						c-3-2.9-6.1-5.7-9.5-8.4l9.2-6.2c4.6-3.1,4.7-8.2,0-11.4l-4.2-2.8c-4.6-3.1-12.2-3.1-16.8,0l-9.2,6.2c-4-2.3-8.1-4.4-12.4-6.5
						l6.5-7.6c3.3-3.8,1.4-8.8-4.3-11l-5.1-2c-5.7-2.2-13-0.9-16.3,2.9l-6.5,7.6c-4.7-1.5-9.5-2.8-14.5-4l3.4-8.5
						c1.7-4.3-2.1-8.7-8.4-9.9l-5.7-1c-6.3-1.2-12.9,1.4-14.6,5.7l-3.4,8.5c-5.2-0.6-10.3-1.1-15.5-1.4l0-8.8c0-4.4-5.3-8-11.9-8
						l-5.9,0c-6.6,0-11.9,3.6-11.9,8l0,8.7c-5.2,0.3-10.4,0.8-15.5,1.4l-3.3-8.5c-1.7-4.3-8.2-6.8-14.6-5.7l-5.7,1
						c-6.3,1.1-10.1,5.5-8.4,9.8l3.3,8.5c-4.9,1.2-9.7,2.6-14.5,4l-6.5-7.6c-3.3-3.8-10.6-5.2-16.3-3l-5.2,2
						c-5.7,2.2-7.6,7.1-4.4,11l6.5,7.6c-4.3,2-8.4,4.2-12.4,6.4l-9.2-6.2c-4.6-3.1-12.2-3.1-16.8,0l-4.2,2.8
						c-4.7,3.1-4.7,8.2,0,11.4l9.1,6.2c-3.4,2.7-6.5,5.5-9.6,8.4l-11.2-4.4c-5.7-2.2-13-0.9-16.3,2.9l-3,3.5
						c-3.3,3.8-1.3,8.8,4.3,11l11.2,4.4c-2.2,3.2-4.2,6.4-6,9.8l-12.5-2.3c-6.3-1.2-12.9,1.4-14.6,5.7l-1.5,3.9
						c-1.7,4.3,2.1,8.7,8.4,9.9l12.5,2.3c-0.9,3.5-1.6,7-2.1,10.5l-13,0c-6.6,0-11.9,3.6-11.9,8l0,4c0,4.4,5.3,8,11.9,8l12.9,0
						c0.4,3.5,1.1,7,2,10.5l-12.5,2.3c-6.3,1.1-10.1,5.6-8.4,9.8l1.5,3.9c1.7,4.3,8.2,6.8,14.6,5.7l12.5-2.3c1.8,3.3,3.8,6.6,6,9.8
						l-11.3,4.4c-5.7,2.2-7.7,7.1-4.4,11l3,3.5c3.3,3.8,10.6,5.2,16.2,3l11.3-4.4c3,2.9,6.1,5.7,9.5,8.4l-9.2,6.2
						c-4.7,3.1-4.7,8.2,0,11.4l4.2,2.8c4.6,3.1,12.2,3.1,16.8,0l9.2-6.2c4,2.3,8.1,4.4,12.4,6.4l-6.5,7.6c-3.3,3.8-1.3,8.8,4.3,11
						l5.1,2c5.7,2.2,13,0.9,16.3-2.9l6.5-7.6c4.7,1.5,9.5,2.8,14.5,4l-3.4,8.5c-1.7,4.3,2.1,8.7,8.4,9.9l5.7,1
						c6.3,1.2,12.9-1.4,14.6-5.7l3.4-8.5c5.2,0.6,10.3,1.1,15.5,1.4l0,8.7c0,4.4,5.3,8,11.9,8.1l5.9,0c6.6,0,11.9-3.6,11.9-8l0-8.7
						c5.2-0.3,10.4-0.8,15.5-1.4l3.3,8.5c1.7,4.3,8.2,6.8,14.6,5.7l5.7-1c6.3-1.1,10.1-5.6,8.4-9.8l-3.4-8.5c4.9-1.2,9.7-2.6,14.5-4
						l6.5,7.6c3.3,3.8,10.6,5.2,16.3,3l5.2-2c5.7-2.2,7.7-7.1,4.4-11l-6.5-7.6c4.3-2,8.4-4.1,12.4-6.4l9.2,6.2
						c4.6,3.1,12.2,3.1,16.8,0l4.2-2.8c4.7-3.1,4.7-8.2,0-11.4l-9.1-6.2c3.4-2.7,6.5-5.5,9.6-8.4l11.2,4.4c5.7,2.2,13,0.9,16.3-2.9
						l3-3.5c3.3-3.8,1.3-8.8-4.3-11l-11.2-4.4c2.2-3.2,4.2-6.4,6-9.8l12.5,2.3c6.3,1.2,12.9-1.4,14.6-5.7l1.5-3.9
						C934,416.7,930.2,412.3,923.9,411.1z"/>
					
						<radialGradient id="SVGID_13_" cx="995.8219" cy="756.4296" r="94.0226" fx="998.371" fy="781.3032" gradientTransform="matrix(2.1688 0 0 1.4654 -1420.6163 -692.538)" gradientUnits="userSpaceOnUse">
						<stop  offset="0.4869" style="stop-color:#FFFFFF"/>
						<stop  offset="1" style="stop-color:#E1E8EC"/>
					</radialGradient>
					<ellipse fill="url(#SVGID_13_)" cx="740.5" cy="387.9" rx="154.3" ry="104.2"/>
					<g>
						<path fill="#0984DB" d="M886.3,388.2c0,54.4-65.3,98.5-145.8,98.5c-80.5,0-145.8-44.1-145.8-98.5c0-54.4,65.3-98.5,145.8-98.5
							C821.1,289.7,886.3,333.8,886.3,388.2z"/>
						<path fill="#0984DB" d="M886.3,388.2c0,54.4-65.3,98.5-145.8,98.5c-80.5,0-145.8-44.1-145.8-98.5c0-54.4,65.3-98.5,145.8-98.5
							C821.1,289.7,886.3,333.8,886.3,388.2z"/>
					</g>
				</g>
				
					<text transform="matrix(1.48 0 0 1 701.7545 323.8505)" fill="#FFFFFF" font-family="'RobotoSlab-Bold'" font-size="16.246" letter-spacing="-0.7">Strength</text>
				<rect x="666.2" y="325.5" fill="none" width="186.8" height="145.9"/>
				<text transform="matrix(1.48 0 0 1 666.1579 331.2919)"><tspan x="0" y="0" fill="#FFFFFF" font-family="'RobotoSlab-Thin'" font-size="8.123"> Is a key factor in performance and </tspan><tspan x="0" y="9.7" fill="#FFFFFF" font-family="'RobotoSlab-Thin'" font-size="8.123">must be emphasized during training </tspan><tspan x="0" y="19.5" fill="#FFFFFF" font-family="'RobotoSlab-Thin'" font-size="8.123">to increase the force produced by </tspan><tspan x="0" y="29.2" fill="#FFFFFF" font-family="'RobotoSlab-Thin'" font-size="8.123">muscle contraction.  Helps to </tspan><tspan x="0" y="39" fill="#FFFFFF" font-family="'RobotoSlab-Thin'" font-size="8.123">increase the strength of our bones </tspan><tspan x="0" y="48.7" fill="#FFFFFF" font-family="'RobotoSlab-Thin'" font-size="8.123">and other soft tissue (Tendons &amp; </tspan><tspan x="0" y="58.5" fill="#FFFFFF" font-family="'RobotoSlab-Thin'" font-size="8.123">Ligaments).  Increases our daily </tspan><tspan x="0" y="68.2" fill="#FFFFFF" font-family="'RobotoSlab-Thin'" font-size="8.123">calorie expenditure and maintains </tspan><tspan x="0" y="78" fill="#FFFFFF" font-family="'RobotoSlab-Thin'" font-size="8.123">appropriate body composition.  </tspan><tspan x="0" y="87.7" fill="#FFFFFF" font-family="'RobotoSlab-Thin'" font-size="8.123">Strength is vital aspect of all short </tspan><tspan x="0" y="97.5" fill="#FFFFFF" font-family="'RobotoSlab-Thin'" font-size="8.123">and intense energy outputs, and the </tspan><tspan x="0" y="107.2" fill="#FFFFFF" font-family="'RobotoSlab-Thin'" font-size="8.123">foundation of all athletic qualities.  </tspan><tspan x="0" y="117" fill="#FFFFFF" font-family="'RobotoSlab-Thin'" font-size="8.123">Strength also helps to reduce the risk </tspan><tspan x="0" y="126.7" fill="#FFFFFF" font-family="'RobotoSlab-Thin'" font-size="8.123">of injury.</tspan></text>
				
					<text transform="matrix(1.48 0 0 1 615.0969 405.5261)" fill="#FFFFFF" font-family="'Bebas'" font-size="40.9489" letter-spacing="-0.7">3</text>
				<g>
					<rect x="659.8" y="344.4" fill="#FFFFFF" width="1.2" height="105.3"/>
				</g>
			</g>
			<g>
				<g>
					
						<linearGradient id="SVGID_14_" gradientUnits="userSpaceOnUse" x1="228.7287" y1="548.7156" x2="228.7287" y2="377.6875" gradientTransform="matrix(0.9855 0.1699 -0.1699 0.9855 60.9339 -55.9763)">
						<stop  offset="0" style="stop-color:#E1E8EC"/>
						<stop  offset="0.5131" style="stop-color:#FFFFFF"/>
					</linearGradient>
					<path fill="url(#SVGID_14_)" d="M388.3,439.9l-11.7-3.7c1.8-3.4,3.3-6.8,4.6-10.2l12.6,1.5c6.4,0.8,12.5-2.2,13.6-6.6l1-4
						c1.1-4.4-3.2-8.6-9.6-9.4l-12.6-1.5c0.4-3.6,0.6-7.1,0.6-10.6l12.8-0.8c6.5-0.4,11.3-4.3,10.7-8.8l-0.5-4
						c-0.6-4.5-6.3-7.7-12.8-7.3l-12.8,0.8c-0.9-3.5-2-7-3.4-10.4l12.1-3c6.1-1.5,9.2-6.2,7-10.4l-2-3.8c-2.2-4.2-9-6.3-15.1-4.8
						l-12.1,3c-2.2-3.2-4.6-6.4-7.2-9.4l10.5-5.1c5.3-2.6,6.6-7.6,2.8-11.3l-3.4-3.3c-3.7-3.7-11.1-4.5-16.4-2l-10.5,5.1
						c-3.3-2.7-6.8-5.3-10.5-7.8l8.2-6.8c4.2-3.4,3.5-8.5-1.5-11.4l-4.5-2.6c-5-2.9-12.4-2.4-16.6,1l-8.2,6.8
						c-4.2-2-8.6-3.9-13.1-5.7l5.4-8c2.7-4.1,0.2-8.9-5.7-10.7l-5.3-1.7c-5.9-1.9-12.9-0.1-15.6,3.9l-5.4,8
						c-4.9-1.2-9.8-2.3-14.8-3.2l2.2-8.7c1.1-4.4-3.2-8.6-9.6-9.4l-5.8-0.7c-6.4-0.8-12.5,2.2-13.6,6.6l-2.2,8.7
						c-5.2-0.3-10.3-0.4-15.5-0.4l-1.2-8.8c-0.6-4.5-6.3-7.7-12.8-7.3l-5.9,0.4c-6.5,0.4-11.3,4.3-10.7,8.8l1.2,8.8
						c-5.1,0.6-10.1,1.4-15.1,2.3l-4.4-8.3c-2.2-4.2-9-6.4-15.1-4.8l-5.5,1.4c-6.1,1.5-9.2,6.2-7,10.4l4.4,8.3
						c-4.7,1.5-9.3,3.1-13.7,4.9l-7.4-7.2c-3.8-3.7-11.1-4.5-16.4-2l-4.8,2.3c-5.3,2.6-6.6,7.6-2.8,11.3l7.4,7.2
						c-3.9,2.3-7.8,4.7-11.4,7.2l-9.8-5.6c-5-2.9-12.4-2.4-16.6,1l-3.8,3.1c-4.2,3.4-3.5,8.5,1.5,11.4l9.8,5.6
						c-2.9,2.9-5.7,5.9-8.3,9l-11.7-3.7c-5.9-1.9-12.9-0.1-15.6,3.9l-2.5,3.7c-2.7,4.1-0.2,8.9,5.7,10.7l11.7,3.7
						c-1.8,3.4-3.3,6.8-4.6,10.2l-12.6-1.5c-6.4-0.8-12.5,2.2-13.6,6.6l-1,4c-1.1,4.4,3.2,8.6,9.6,9.4l12.6,1.5
						c-0.4,3.6-0.6,7.1-0.6,10.6l-12.8,0.8c-6.5,0.4-11.3,4.3-10.7,8.8l0.5,4c0.6,4.5,6.3,7.7,12.8,7.3l12.8-0.8
						c0.9,3.5,2,7,3.4,10.4l-12.1,3c-6.1,1.5-9.2,6.2-7,10.4l2,3.8c2.2,4.2,9,6.4,15.1,4.8l12.1-3c2.2,3.2,4.6,6.4,7.2,9.4
						l-10.5,5.1c-5.3,2.6-6.6,7.6-2.9,11.3l3.4,3.3c3.7,3.7,11.1,4.5,16.4,2l10.5-5.1c3.3,2.7,6.8,5.3,10.5,7.8l-8.2,6.8
						c-4.2,3.4-3.5,8.5,1.5,11.4l4.5,2.6c5,2.9,12.4,2.4,16.6-1l8.2-6.8c4.2,2,8.6,3.9,13.1,5.7l-5.4,8c-2.7,4.1-0.2,8.9,5.7,10.7
						l5.3,1.7c5.9,1.9,12.9,0.1,15.6-3.9l5.4-8c4.9,1.2,9.8,2.3,14.8,3.2l-2.2,8.7c-1.1,4.4,3.2,8.6,9.6,9.4l5.8,0.7
						c6.4,0.8,12.5-2.2,13.6-6.6l2.2-8.7c5.2,0.3,10.3,0.4,15.5,0.4l1.2,8.8c0.6,4.5,6.3,7.7,12.8,7.3l5.9-0.4
						c6.5-0.4,11.3-4.3,10.7-8.8l-1.2-8.8c5.1-0.6,10.1-1.4,15.1-2.3l4.4,8.3c2.2,4.2,9,6.4,15.1,4.8l5.5-1.4
						c6.1-1.5,9.2-6.2,7-10.4l-4.4-8.3c4.7-1.5,9.3-3.1,13.7-4.9l7.4,7.2c3.8,3.7,11.1,4.5,16.4,2l4.8-2.3c5.3-2.6,6.6-7.6,2.8-11.3
						l-7.4-7.2c3.9-2.3,7.8-4.7,11.4-7.2l9.8,5.6c5,2.9,12.4,2.4,16.6-1l3.8-3.1c4.2-3.4,3.5-8.5-1.5-11.4l-9.9-5.6
						c2.9-2.9,5.7-5.9,8.3-9l11.7,3.7c5.9,1.9,12.9,0.1,15.6-3.9l2.5-3.7C396.8,446.6,394.3,441.8,388.3,439.9z"/>
					
						<radialGradient id="SVGID_15_" cx="532.5756" cy="729.3264" r="105.4534" fx="535.4346" fy="757.2239" gradientTransform="matrix(1.9148 0 0 1.3157 -806.0797 -535.684)" gradientUnits="userSpaceOnUse">
						<stop  offset="0.4869" style="stop-color:#FFFFFF"/>
						<stop  offset="1" style="stop-color:#E1E8EC"/>
					</radialGradient>
					<ellipse fill="url(#SVGID_15_)" cx="215.1" cy="395.6" rx="152.8" ry="105"/>
					<g>
						<path fill="#3FA9F5" d="M359.5,395.9c0,54.8-64.6,99.2-144.4,99.2c-79.7,0-144.4-44.4-144.4-99.2c0-54.8,64.6-99.2,144.4-99.2
							C294.9,296.7,359.5,341.2,359.5,395.9z"/>
						<path fill="#3FA9F5" d="M359.5,395.9c0,54.8-64.6,99.2-144.4,99.2c-79.7,0-144.4-44.4-144.4-99.2c0-54.8,64.6-99.2,144.4-99.2
							C294.9,296.7,359.5,341.2,359.5,395.9z"/>
					</g>
				</g>
				
					<text transform="matrix(1.4554 0 0 1 170.532 331.0782)" fill="#FFFFFF" font-family="'RobotoSlab-Bold'" font-size="14.5863" letter-spacing="-0.7">Power</text>
				<rect x="164.4" y="347.9" fill="none" width="176.6" height="117.9"/>
				<text transform="matrix(1.4554 0 0 1 164.3865 353.0861)"><tspan x="0" y="0" fill="#FFFFFF" font-family="'RobotoSlab-Thin'" font-size="7.2931">Our most important Performance </tspan><tspan x="0" y="8.8" fill="#FFFFFF" font-family="'RobotoSlab-Thin'" font-size="7.2931">Factor for high level athletes.  You must </tspan><tspan x="0" y="17.5" fill="#FFFFFF" font-family="'RobotoSlab-Thin'" font-size="7.2931">be explosive!  In order to be explosive </tspan><tspan x="0" y="26.3" fill="#FFFFFF" font-family="'RobotoSlab-Thin'" font-size="7.2931">consistently you must master the first 3 </tspan><tspan x="0" y="35" fill="#FFFFFF" font-family="'RobotoSlab-Thin'" font-size="7.2931">stages of our training program in order </tspan><tspan x="0" y="43.8" fill="#FFFFFF" font-family="'RobotoSlab-Thin'" font-size="7.2931">for you to adequately recover from </tspan><tspan x="0" y="52.5" fill="#FFFFFF" font-family="'RobotoSlab-Thin'" font-size="7.2931">power based efforts and maintain the </tspan><tspan x="0" y="61.3" fill="#FFFFFF" font-family="'RobotoSlab-Thin'" font-size="7.2931">level of intensity needed to perform at </tspan><tspan x="0" y="70" fill="#FFFFFF" font-family="'RobotoSlab-Thin'" font-size="7.2931">a high level.  Power is developed by </tspan><tspan x="0" y="78.8" fill="#FFFFFF" font-family="'RobotoSlab-Thin'" font-size="7.2931">increasing the rate force is developed.</tspan></text>
				
					<text transform="matrix(1.4554 0 0 1 90.9642 398.4493)" fill="#FFFFFF" font-family="'Bebas'" font-size="36.7656" letter-spacing="-0.7">4</text>
				<g>
					<rect x="154.5" y="343.9" fill="#FFFFFF" width="1.1" height="95.2"/>
				</g>
			</g>
			<g>
				<g>
					
						<linearGradient id="SVGID_16_" gradientUnits="userSpaceOnUse" x1="751.9174" y1="266.3789" x2="751.9174" y2="120.994" gradientTransform="matrix(0.9884 -0.1518 0.1518 0.9884 -16.3161 83.7617)">
						<stop  offset="0" style="stop-color:#E1E8EC"/>
						<stop  offset="0.5131" style="stop-color:#FFFFFF"/>
					</linearGradient>
					<path fill="url(#SVGID_16_)" d="M910.5,127.3l-11.1-0.8c0.1-3,0-6.1-0.3-9.1l11-1.1c5.6-0.6,9.4-4.1,8.6-7.9l-0.8-3.4
						c-0.8-3.8-6.1-6.4-11.6-5.8l-11,1.1c-1.1-3-2.3-5.9-3.7-8.7l10.2-3c5.2-1.5,7.5-5.6,5.2-9.1l-2-3.2c-2.3-3.5-8.3-5.1-13.4-3.5
						l-10.2,3c-2.1-2.7-4.5-5.2-7-7.8l8.7-4.7c4.4-2.4,5.1-6.7,1.6-9.7l-3.2-2.7c-3.5-3-9.9-3.5-14.3-1.1l-8.7,4.7
						c-3.1-2.2-6.3-4.3-9.7-6.3l6.6-6.1c3.3-3.1,2.4-7.4-2.2-9.6l-4.1-2c-4.5-2.3-10.9-1.6-14.3,1.5l-6.6,6c-3.8-1.6-7.7-3-11.8-4.4
						l4-7c2-3.5-0.5-7.5-5.8-8.9l-4.8-1.3c-5.3-1.4-11.2,0.4-13.2,3.9l-4,7c-4.3-0.8-8.6-1.6-13-2.2l1.2-7.5c0.6-3.8-3.4-7.2-9-7.6
						l-5.1-0.4c-5.6-0.4-10.6,2.3-11.3,6.1l-1.2,7.5c-4.5-0.1-9,0-13.4,0.2l-1.7-7.4c-0.8-3.8-6.1-6.4-11.6-5.8l-5,0.5
						c-5.6,0.6-9.4,4.1-8.6,7.9l1.7,7.4c-4.4,0.7-8.7,1.6-12.9,2.5l-4.5-6.9c-2.3-3.5-8.3-5.1-13.4-3.5l-4.7,1.4
						c-5.2,1.5-7.5,5.6-5.3,9.1l4.5,6.9c-3.9,1.5-7.8,3-11.5,4.7l-7-5.9c-3.5-3-9.9-3.5-14.3-1.1l-4,2.2c-4.4,2.4-5.1,6.7-1.6,9.7
						l7,5.9c-3.2,2.1-6.3,4.3-9.3,6.5l-9-4.5c-4.5-2.3-10.9-1.6-14.3,1.5l-3,2.8c-3.3,3.1-2.4,7.4,2.2,9.6l9,4.4
						c-2.3,2.6-4.5,5.2-6.5,7.9l-10.3-2.7c-5.3-1.4-11.2,0.4-13.2,3.9l-1.9,3.2c-2.1,3.5,0.5,7.5,5.8,8.9l10.4,2.7
						c-1.3,2.9-2.3,5.8-3.2,8.8l-11.1-0.8c-5.6-0.4-10.7,2.3-11.3,6.1l-0.6,3.4c-0.6,3.8,3.4,7.2,9,7.6l11.1,0.8
						c-0.1,3,0,6.1,0.2,9.1l-11,1.1c-5.6,0.6-9.4,4.1-8.6,7.9l0.8,3.4c0.9,3.8,6.1,6.4,11.6,5.8l11-1.1c1.1,3,2.3,5.9,3.7,8.7
						l-10.2,3c-5.2,1.5-7.5,5.6-5.2,9.1l2.1,3.2c2.3,3.5,8.3,5.1,13.4,3.5l10.2-3c2.1,2.7,4.5,5.2,7,7.8l-8.7,4.7
						c-4.4,2.4-5.1,6.7-1.6,9.7l3.2,2.7c3.5,3,9.9,3.5,14.3,1.1l8.7-4.7c3.1,2.2,6.3,4.3,9.7,6.3l-6.6,6.1c-3.3,3.1-2.4,7.4,2.2,9.6
						l4.1,2c4.5,2.3,10.9,1.6,14.3-1.5l6.6-6c3.8,1.6,7.7,3,11.8,4.4l-4,7c-2,3.5,0.5,7.5,5.8,8.9l4.8,1.3
						c5.3,1.4,11.2-0.4,13.2-3.9l4-7c4.3,0.8,8.6,1.6,13,2.2l-1.2,7.5c-0.6,3.8,3.4,7.2,9,7.6l5.1,0.4c5.6,0.4,10.6-2.3,11.3-6.1
						l1.2-7.5c4.5,0.1,9,0,13.4-0.2l1.7,7.4c0.9,3.8,6.1,6.4,11.6,5.8l5-0.5c5.6-0.6,9.4-4.1,8.5-7.9l-1.7-7.4
						c4.4-0.7,8.7-1.6,12.9-2.5l4.5,6.9c2.3,3.5,8.3,5.1,13.4,3.5l4.7-1.4c5.2-1.5,7.5-5.6,5.3-9.1l-4.5-6.9c3.9-1.5,7.8-3,11.5-4.7
						l7,5.9c3.5,3,9.9,3.5,14.3,1.1l4-2.2c4.4-2.4,5.1-6.7,1.6-9.7l-7-5.9c3.2-2.1,6.3-4.3,9.3-6.5l9,4.5c4.5,2.3,10.9,1.6,14.3-1.5
						l3-2.8c3.3-3.1,2.4-7.4-2.2-9.6l-8.9-4.4c2.3-2.6,4.5-5.2,6.5-7.9l10.3,2.7c5.3,1.4,11.2-0.4,13.2-3.9l1.9-3.2
						c2.1-3.5-0.5-7.5-5.8-8.9l-10.4-2.7c1.3-2.9,2.3-5.8,3.2-8.8l11.1,0.8c5.6,0.4,10.7-2.3,11.3-6.1l0.6-3.4
						C920.1,131.2,916.1,127.8,910.5,127.3z"/>
					
						<radialGradient id="SVGID_17_" cx="1033.6941" cy="375.0344" r="105.4533" fx="1036.5531" fy="402.9319" gradientTransform="matrix(1.6586 0 0 1.1209 -965.1599 -272.5333)" gradientUnits="userSpaceOnUse">
						<stop  offset="0.4869" style="stop-color:#FFFFFF"/>
						<stop  offset="1" style="stop-color:#E1E8EC"/>
					</radialGradient>
					<ellipse fill="url(#SVGID_17_)" cx="750.6" cy="123.8" rx="132.3" ry="89.4"/>
					<g>
						<path fill="#06098F" d="M875.7,124c0,46.7-56,84.5-125.1,84.5c-69.1,0-125.1-37.8-125.1-84.5c0-46.7,56-84.5,125.1-84.5
							C819.7,39.5,875.7,77.4,875.7,124z"/>
						<path fill="#06098F" d="M875.6,123.2c0,46.7-56,84.5-125.1,84.5c-69.1,0-125.1-37.8-125.1-84.5c0-46.7,56-84.5,125.1-84.5
							C819.7,38.7,875.6,76.5,875.6,123.2z"/>
					</g>
				</g>
				
					<text transform="matrix(1.4798 0 0 1 701.7548 75.8058)" fill="#FFFFFF" font-family="'RobotoSlab-Bold'" font-size="18" letter-spacing="-0.7">Endurance</text>
				<rect x="706.1" y="82.7" fill="none" width="138.9" height="95.5"/>
				<text transform="matrix(1.4798 0 0 1 706.0862 87.0803)"><tspan x="0" y="0" fill="#FFFFFF" font-family="'RobotoSlab-Thin'" font-size="6.2132">Once Proficient Patterns are </tspan><tspan x="0" y="7.5" fill="#FFFFFF" font-family="'RobotoSlab-Thin'" font-size="6.2132">Established we must increase the </tspan><tspan x="0" y="14.9" fill="#FFFFFF" font-family="'RobotoSlab-Thin'" font-size="6.2132">tissue’s resistance to fatigue.  </tspan><tspan x="0" y="22.4" fill="#FFFFFF" font-family="'RobotoSlab-Thin'" font-size="6.2132">Competition Requires high intense </tspan><tspan x="0" y="29.8" fill="#FFFFFF" font-family="'RobotoSlab-Thin'" font-size="6.2132">efforts and can result in fatigue.  The </tspan><tspan x="0" y="37.3" fill="#FFFFFF" font-family="'RobotoSlab-Thin'" font-size="6.2132">majority of preventable athletic </tspan><tspan x="0" y="44.7" fill="#FFFFFF" font-family="'RobotoSlab-Thin'" font-size="6.2132">injuries occur during points of </tspan><tspan x="0" y="52.2" fill="#FFFFFF" font-family="'RobotoSlab-Thin'" font-size="6.2132">fatigue, so it is very important that </tspan><tspan x="0" y="59.6" fill="#FFFFFF" font-family="'RobotoSlab-Thin'" font-size="6.2132">our athletes can maintain outputs </tspan><tspan x="0" y="67.1" fill="#FFFFFF" font-family="'RobotoSlab-Thin'" font-size="6.2132">throughout the duration of a game </tspan><tspan x="0" y="74.6" fill="#FFFFFF" font-family="'RobotoSlab-Thin'" font-size="6.2132">and reduce risk of injury.</tspan></text>
				
					<text transform="matrix(1.4798 0 0 1 638.9339 130.4234)" fill="#FFFFFF" font-family="'Bebas'" font-size="31.3217" letter-spacing="-0.7">2</text>
				<g>
					<rect x="697.6" y="85.5" fill="#FFFFFF" width="0.9" height="73.2"/>
				</g>
			</g>
			<g>
				<linearGradient id="SVGID_18_" gradientUnits="userSpaceOnUse" x1="295.9763" y1="235.8282" x2="295.9763" y2="116.9052">
					<stop  offset="0" style="stop-color:#E1E8EC"/>
					<stop  offset="0.5131" style="stop-color:#FFFFFF"/>
				</linearGradient>
				<path fill="url(#SVGID_18_)" d="M428.8,162l-9.1-1.6c0.7-2.5,1.2-5,1.5-7.4l9.4,0c4.8,0,8.6-2.6,8.6-5.7l0-2.9
					c0-3.2-3.8-5.7-8.6-5.7l-9.4,0c-0.3-2.5-0.8-5-1.5-7.4l9.1-1.6c4.6-0.8,7.3-3.9,6.1-7l-1.1-2.8c-1.2-3-5.9-4.9-10.6-4l-9.1,1.6
					c-1.3-2.4-2.7-4.7-4.3-6.9l8.2-3.1c4.1-1.6,5.5-5.1,3.2-7.8l-2.2-2.5c-2.4-2.7-7.6-3.7-11.8-2.1l-8.2,3.1c-2.2-2.1-4.5-4-6.9-6
					l6.7-4.4c3.4-2.2,3.4-5.8,0-8.1l-3-2c-3.4-2.2-8.8-2.2-12.2,0l-6.6,4.4c-2.9-1.6-5.9-3.1-9-4.6l4.7-5.4c2.4-2.7,1-6.2-3.1-7.8
					l-3.7-1.4c-4.1-1.6-9.4-0.6-11.8,2.1l-4.7,5.4c-3.4-1.1-6.9-2-10.5-2.9l2.4-6c1.2-3-1.5-6.2-6.1-7l-4.2-0.7
					c-4.6-0.8-9.3,1-10.6,4l-2.4,6c-3.7-0.4-7.5-0.8-11.2-1l0-6.2c0-3.2-3.9-5.7-8.6-5.7l-4.3,0c-4.8,0-8.6,2.6-8.6,5.7l0,6.2
					c-3.8,0.2-7.5,0.5-11.2,1l-2.4-6c-1.2-3-6-4.9-10.6-4l-4.2,0.7c-4.6,0.8-7.3,3.9-6.1,7l2.4,6c-3.6,0.9-7.1,1.8-10.5,2.9
					l-4.7-5.4c-2.4-2.7-7.7-3.7-11.8-2.1l-3.7,1.4c-4.1,1.6-5.5,5.1-3.2,7.8l4.7,5.4c-3.1,1.4-6.1,2.9-9,4.6l-6.6-4.4
					c-3.4-2.2-8.8-2.2-12.2,0l-3,2c-3.4,2.2-3.4,5.8,0,8.1l6.6,4.4c-2.4,1.9-4.7,3.9-6.9,6l-8.1-3.1c-4.1-1.6-9.4-0.6-11.8,2.1
					l-2.2,2.5c-2.4,2.7-1,6.2,3.1,7.8l8.1,3.1c-1.6,2.3-3,4.6-4.3,6.9l-9.1-1.6c-4.6-0.8-9.3,1-10.6,4l-1.1,2.8
					c-1.2,3,1.5,6.2,6.1,7l9.1,1.6c-0.7,2.5-1.2,5-1.5,7.4l-9.4,0c-4.8,0-8.6,2.5-8.6,5.7l0,2.9c0,3.2,3.9,5.7,8.6,5.7l9.4,0
					c0.3,2.5,0.8,5,1.5,7.4l-9.1,1.6c-4.6,0.8-7.3,3.9-6.1,7l1.1,2.8c1.2,3,6,4.9,10.6,4l9.1-1.6c1.3,2.4,2.7,4.7,4.3,6.9l-8.2,3.1
					c-4.1,1.6-5.5,5.1-3.2,7.8l2.2,2.5c2.4,2.7,7.6,3.7,11.8,2.1l8.2-3.1c2.2,2.1,4.5,4,6.9,6l-6.7,4.4c-3.4,2.2-3.4,5.8,0,8.1l3,2
					c3.4,2.2,8.8,2.2,12.2,0l6.6-4.4c2.9,1.6,5.9,3.1,9,4.6l-4.7,5.4c-2.4,2.7-1,6.2,3.1,7.8l3.7,1.4c4.1,1.6,9.4,0.6,11.8-2.1
					l4.7-5.4c3.4,1.1,6.9,2,10.5,2.9l-2.4,6c-1.2,3,1.5,6.2,6.1,7l4.2,0.7c4.6,0.8,9.3-1,10.6-4l2.4-6c3.8,0.4,7.5,0.8,11.2,1l0,6.2
					c0,3.2,3.8,5.7,8.6,5.7l4.3,0c4.8,0,8.6-2.6,8.6-5.7l0-6.2c3.8-0.2,7.5-0.5,11.2-1l2.4,6c1.2,3,6,4.9,10.6,4l4.2-0.7
					c4.6-0.8,7.3-3.9,6.1-7l-2.4-6c3.6-0.9,7.1-1.8,10.5-2.9l4.7,5.4c2.4,2.7,7.6,3.7,11.8,2.1l3.7-1.4c4.1-1.6,5.5-5.1,3.2-7.8
					l-4.7-5.4c3.1-1.4,6.1-2.9,9-4.6l6.6,4.4c3.4,2.2,8.8,2.2,12.2,0l3-2c3.4-2.2,3.4-5.8,0-8.1l-6.6-4.4c2.4-1.9,4.7-3.9,6.9-6
					l8.1,3.1c4.1,1.6,9.4,0.7,11.8-2.1l2.2-2.5c2.4-2.7,1-6.2-3.1-7.8l-8.1-3.1c1.6-2.2,3-4.6,4.3-6.9l9.1,1.6c4.6,0.8,9.3-1,10.6-4
					l1.1-2.8C436.2,166,433.4,162.8,428.8,162z"/>
				
					<radialGradient id="SVGID_19_" cx="643.6647" cy="446.743" r="94.0223" fx="646.2137" fy="471.6164" gradientTransform="matrix(1.5715 0 0 1.0409 -716.5632 -299.5914)" gradientUnits="userSpaceOnUse">
					<stop  offset="0.4869" style="stop-color:#FFFFFF"/>
					<stop  offset="1" style="stop-color:#E1E8EC"/>
				</radialGradient>
				<ellipse fill="url(#SVGID_19_)" cx="296" cy="145.5" rx="111.8" ry="74"/>
				<g>
					<ellipse fill="#DB2400" cx="296" cy="145.7" rx="105.6" ry="70"/>
					<ellipse fill="#DB2400" cx="296" cy="145.7" rx="105.6" ry="70"/>
				</g>
			</g>
			<text transform="matrix(1.0165 0 0 1 269.2786 102.2311)" fill="#FFFFFF" font-family="'RobotoSlab-Bold'" font-size="16.94">Capacity</text>
			<rect x="243" y="119.5" fill="none" width="146.1" height="129.1"/>
			<text transform="matrix(1.4056 0 0 1 243.0359 124.8502)"><tspan x="0" y="0" fill="#FFFFFF" font-family="'RobotoSlab-Thin'" font-size="7.5289">Build Neuromuscular patterns </tspan><tspan x="0" y="9" fill="#FFFFFF" font-family="'RobotoSlab-Thin'" font-size="7.5289">that support Optimal movement </tspan><tspan x="0" y="18.1" fill="#FFFFFF" font-family="'RobotoSlab-Thin'" font-size="7.5289">through appropriate sequence </tspan><tspan x="0" y="27.1" fill="#FFFFFF" font-family="'RobotoSlab-Thin'" font-size="7.5289">of muscle innervation.  This will </tspan><tspan x="0" y="36.1" fill="#FFFFFF" font-family="'RobotoSlab-Thin'" font-size="7.5289">help improve the quality of </tspan><tspan x="0" y="45.2" fill="#FFFFFF" font-family="'RobotoSlab-Thin'" font-size="7.5289">muscle tissue and help increase </tspan><tspan x="0" y="54.2" fill="#FFFFFF" font-family="'RobotoSlab-Thin'" font-size="7.5289">its loading capacity.</tspan></text>
			<text transform="matrix(1.4056 0 0 1 205.7142 152.3839)" fill="#FFFFFF" font-family="'Bebas'" font-size="19.81">1</text>
			<g>
				<rect x="233.3" y="119.5" fill="#FFFFFF" width="0" height="60.1"/>
			</g>
			<rect x="410.5" y="254.6" fill="none" width="112.4" height="38.8"/>
			<text transform="matrix(1.4056 0 0 1 424.2605 262.5758)"><tspan x="0" y="0" font-family="'MyriadPro-Regular'" font-size="11.2933">Performance</tspan><tspan x="12.8" y="13.6" font-family="'MyriadPro-Regular'" font-size="11.2933">Testing</tspan></text>
			<g>
				<g>
					<g>
						<linearGradient id="SVGID_20_" gradientUnits="userSpaceOnUse" x1="71.8852" y1="169.315" x2="71.8852" y2="109.2111">
							<stop  offset="0" style="stop-color:#E1E8EC"/>
							<stop  offset="0.5131" style="stop-color:#FFFFFF"/>
						</linearGradient>
						<path fill="url(#SVGID_20_)" d="M131.4,132l-4.1-0.8c0.3-1.3,0.5-2.5,0.7-3.8l4.2,0c2.1,0,3.9-1.3,3.9-2.9l0-1.4
							c0-1.6-1.7-2.9-3.9-2.9l-4.2,0c-0.1-1.3-0.4-2.5-0.7-3.8l4.1-0.8c2.1-0.4,3.3-2,2.7-3.5l-0.5-1.4c-0.5-1.5-2.7-2.5-4.7-2
							l-4.1,0.8c-0.6-1.2-1.2-2.4-1.9-3.5l3.7-1.6c1.8-0.8,2.5-2.6,1.4-3.9l-1-1.3c-1.1-1.4-3.4-1.9-5.3-1.1l-3.7,1.6
							c-1-1-2-2-3.1-3l3-2.2c1.5-1.1,1.5-3,0-4.1l-1.4-1c-1.5-1.1-3.9-1.1-5.5,0l-3,2.2c-1.3-0.8-2.6-1.6-4-2.3l2.1-2.7
							c1.1-1.4,0.4-3.1-1.4-3.9l-1.7-0.7c-1.8-0.8-4.2-0.3-5.3,1.1l-2.1,2.7c-1.5-0.5-3.1-1-4.7-1.4l1.1-3c0.6-1.5-0.7-3.1-2.7-3.5
							l-1.9-0.4c-2.1-0.4-4.2,0.5-4.7,2l-1.1,3c-1.7-0.2-3.4-0.4-5-0.5l0-3.1c0-1.6-1.7-2.9-3.9-2.9l-1.9,0c-2.1,0-3.9,1.3-3.9,2.9
							l0,3.1c-1.7,0.1-3.4,0.3-5,0.5l-1.1-3c-0.5-1.5-2.7-2.5-4.7-2l-1.9,0.4c-2.1,0.4-3.3,2-2.7,3.5l1.1,3
							c-1.6,0.4-3.2,0.9-4.7,1.4L46,82.9c-1.1-1.4-3.4-1.9-5.3-1.1L39,82.6c-1.8,0.8-2.5,2.6-1.4,3.9l2.1,2.7
							c-1.4,0.7-2.7,1.5-4,2.3l-3-2.2c-1.5-1.1-4-1.1-5.5,0l-1.4,1c-1.5,1.1-1.5,3,0,4.1l3,2.2c-1.1,1-2.1,2-3.1,3l-3.6-1.6
							c-1.8-0.8-4.2-0.3-5.3,1.1l-1,1.2c-1.1,1.4-0.4,3.1,1.4,3.9l3.6,1.6c-0.7,1.1-1.4,2.3-1.9,3.5l-4.1-0.8
							c-2.1-0.4-4.2,0.5-4.7,2L9.7,112c-0.6,1.5,0.7,3.1,2.7,3.5l4.1,0.8c-0.3,1.3-0.5,2.5-0.7,3.8l-4.2,0c-2.1,0-3.9,1.3-3.9,2.9
							v1.4c0,1.6,1.7,2.9,3.9,2.9l4.2,0c0.1,1.3,0.4,2.5,0.7,3.8l-4.1,0.8c-2.1,0.4-3.3,2-2.7,3.5l0.5,1.4c0.5,1.5,2.7,2.5,4.7,2
							l4.1-0.8c0.6,1.2,1.2,2.4,1.9,3.5l-3.7,1.6c-1.8,0.8-2.5,2.6-1.4,3.9l1,1.3c1.1,1.4,3.4,1.9,5.3,1.1l3.7-1.6c1,1,2,2,3.1,3
							l-3,2.2c-1.5,1.1-1.5,3,0,4.1l1.4,1c1.5,1.1,4,1.1,5.5,0l3-2.2c1.3,0.8,2.6,1.6,4,2.3l-2.1,2.7c-1.1,1.4-0.4,3.1,1.4,3.9
							l1.7,0.7c1.8,0.8,4.2,0.3,5.3-1.1l2.1-2.7c1.5,0.5,3.1,1,4.7,1.4l-1.1,3c-0.6,1.5,0.7,3.1,2.7,3.5l1.9,0.4
							c2.1,0.4,4.2-0.5,4.7-2l1.1-3c1.7,0.2,3.4,0.4,5,0.5l0,3.1c0,1.6,1.7,2.9,3.9,2.9l1.9,0c2.1,0,3.9-1.3,3.9-2.9l0-3.1
							c1.7-0.1,3.4-0.3,5-0.5l1.1,3c0.5,1.5,2.7,2.5,4.7,2l1.9-0.4c2.1-0.4,3.3-2,2.7-3.5l-1.1-3c1.6-0.4,3.2-0.9,4.7-1.5l2.1,2.7
							c1.1,1.4,3.4,1.9,5.3,1.1l1.7-0.7c1.8-0.8,2.5-2.6,1.4-3.9l-2.1-2.7c1.4-0.7,2.7-1.5,4-2.3l3,2.2c1.5,1.1,4,1.1,5.5,0l1.4-1
							c1.5-1.1,1.5-3,0-4.1l-3-2.2c1.1-1,2.1-2,3.1-3l3.6,1.6c1.8,0.8,4.2,0.3,5.3-1.1l1-1.2c1.1-1.4,0.4-3.1-1.4-3.9l-3.6-1.6
							c0.7-1.1,1.4-2.3,1.9-3.5l4.1,0.8c2.1,0.4,4.2-0.5,4.7-2l0.5-1.4C134.7,134,133.4,132.4,131.4,132z"/>
						
							<radialGradient id="SVGID_21_" cx="417.057" cy="442.7206" r="41.4386" fx="418.1805" fy="453.6831" gradientTransform="matrix(1.5048 0 0 1.125 -556.1458 -364.917)" gradientUnits="userSpaceOnUse">
							<stop  offset="0.4869" style="stop-color:#FFFFFF"/>
							<stop  offset="1" style="stop-color:#E1E8EC"/>
						</radialGradient>
						<ellipse fill="url(#SVGID_21_)" cx="71.9" cy="123.7" rx="47.2" ry="35.3"/>
						<linearGradient id="SVGID_22_" gradientUnits="userSpaceOnUse" x1="71.8852" y1="178.545" x2="71.8852" y2="93.1099">
							<stop  offset="0" style="stop-color:#E1E8EC"/>
							<stop  offset="0.5131" style="stop-color:#FFFFFF"/>
						</linearGradient>
						<ellipse fill="url(#SVGID_22_)" cx="71.9" cy="123.7" rx="45.7" ry="34.2"/>
						
							<radialGradient id="SVGID_23_" cx="417.0731" cy="442.2701" r="47.1781" fx="418.3521" fy="454.7509" gradientTransform="matrix(1.5048 0 0 1.125 -556.1458 -364.917)" gradientUnits="userSpaceOnUse">
							<stop  offset="0.4869" style="stop-color:#FFFFFF"/>
							<stop  offset="1" style="stop-color:#E1E8EC"/>
						</radialGradient>
						<ellipse fill="url(#SVGID_23_)" cx="71.9" cy="123.7" rx="44.7" ry="33.4"/>
					</g>
				</g>
				<polygon fill="none" points="111.8,146.2 38.7,146.2 30.6,100.2 113,108 				"/>
				<text transform="matrix(1.3376 0 0 1 36.6302 117.4352)"><tspan x="0" y="0" font-family="'MyriadPro-Regular'" font-size="9.0002">BioMechanical</tspan><tspan x="14.1" y="10.8" font-family="'MyriadPro-Regular'" font-size="9.0002">Testing</tspan></text>
			</g>
			<polygon fill="none" points="511.3,107.8 466.7,107.8 467.7,63.2 530.4,63.2 			"/>
			<text transform="matrix(1.4056 0 0 1 469.2205 71.1954)"><tspan x="0" y="0" font-family="'MyriadPro-Regular'" font-size="6.5878">BioMechanical</tspan><tspan x="40" y="0" font-family="'MyriadPro-Regular'" font-size="11.2933"> </tspan><tspan x="8.6" y="7.9" font-family="'MyriadPro-Regular'" font-size="6.5878">Testing</tspan></text>
		</g>
	</g>
</g>
</svg>
